<svg width="404" height="412" viewBox="0 0 404 412" fill="none" xmlns="http://www.w3.org/2000/svg">
<path d="M183.012 31.724C168.064 33.784 154.086 37.9041 139.784 44.4961C123.786 51.8297 111.262 60.6465 97.4448 74.16C67.1448 103.906 50.9848 142.305 50.904 184.329C50.8232 249.013 87.5064 304.715 146.652 329.847C153.278 332.649 163.539 335.78 173.72 338.005C181.234 339.653 184.466 339.9 202.404 339.9C220.503 339.9 223.574 339.735 231.896 337.922C295.809 324.574 343.885 273.238 353.5 207.978C355.116 197.183 355.035 175.347 353.419 164.058C344.45 101.352 301.142 51.6649 241.35 35.4321C223.735 30.6529 201.354 29.252 183.012 31.724ZM215.817 40.376C239.895 42.7657 262.196 50.9232 282.8 64.8488C294.193 72.5945 311.242 89.5688 319.402 101.352C330.876 117.997 340.087 140.574 343.4 160.35C347.521 184.906 346.066 207.236 338.794 230.308C319.887 290.378 264.862 331.248 202.808 331.248C151.015 331.248 103.262 302.655 78.1336 256.511C63.9128 230.555 57.5296 198.172 60.9232 169.332C63.7512 144.859 71.1848 124.424 84.9208 103.33C93.2432 90.5576 110.13 73.4185 122.816 64.8488C151.096 45.8145 183.82 37.1624 215.817 40.376Z" fill="#740318"/>
<path d="M197.637 46.7208L195.294 47.9568L196.99 49.3576C198.606 50.5936 198.687 51.088 198.041 55.2904C197.637 57.8448 197.152 62.2944 197.071 65.096C196.91 69.8752 197.071 70.452 198.93 71.9352C200.061 72.8416 201.434 73.2536 201.919 73.0064C202.404 72.6768 202.808 70.2048 202.808 67.4856C202.808 64.8488 203.131 62.624 203.535 62.624C204.828 62.624 206.848 65.096 207.333 67.4032C208.222 71.688 209.434 73.336 211.777 73.336C212.989 73.336 214.12 72.7592 214.443 72.0176C215.009 70.6168 213.07 65.4256 211.13 63.2832C210.242 62.2944 210.161 61.8 210.807 61.8C211.373 61.8 212.908 61.0584 214.201 60.0696C215.978 58.8336 216.544 57.7624 216.544 55.7024C216.544 48.2864 204.828 42.6832 197.637 46.7208ZM210.484 51.1704C211.211 53.3952 208.141 56.856 205.394 56.856C203.778 56.856 203.535 56.5264 203.939 54.9608C204.182 53.972 204.424 52.324 204.424 51.2528C204.424 49.7696 204.828 49.44 207.171 49.44C209.272 49.44 210.08 49.852 210.484 51.1704Z" fill="#740318"/>
<path d="M185.032 47.7096C185.032 48.5336 185.355 51.1704 185.84 53.4776C186.729 58.2568 185.759 67.98 184.224 69.5456C182.608 71.1112 181.234 67.98 180.75 61.5528C180.022 53.2304 178.649 49.1104 176.386 48.7808C174.851 48.5336 174.528 49.028 174.043 52.324C173.235 57.8448 174.124 66.4144 175.659 68.804C178.649 73.4184 186.567 75.808 190.203 73.0888C192.142 71.6056 192.87 60.6464 191.496 53.2304C190.93 50.264 190.446 47.792 190.365 47.792C190.365 47.792 189.072 47.4624 187.618 47.0504C185.355 46.3912 185.032 46.4736 185.032 47.7096Z" fill="#740318"/>
<path d="M227.533 50.4288C226.402 52.1592 224.866 55.7024 223.574 59.5752C223.17 60.7288 222.685 60.8936 221.473 60.152C220.18 59.4928 219.776 59.6576 219.372 60.8936C219.13 61.7176 219.372 63.3656 219.857 64.5192C220.584 66.0848 220.584 67.3208 219.857 69.2984C219.21 71.276 219.21 72.1824 219.857 73.0064C221.473 74.984 223.816 74.3248 224.705 71.688C225.594 69.0512 227.533 68.5568 230.199 70.04C231.25 70.5344 231.573 71.4408 231.33 72.8416C230.926 74.984 233.431 78.28 235.451 78.28C236.906 78.28 237.39 75.7256 238.037 65.0136C238.683 54.384 238.279 52.324 234.886 50.264C231.492 48.1216 228.987 48.204 227.533 50.4288ZM232.381 63.1184C231.896 64.4368 231.169 64.5192 229.634 63.5304C228.826 63.036 228.987 61.8824 230.442 58.0096L232.3 53.148L232.542 57.5976C232.704 59.9872 232.623 62.5416 232.381 63.1184Z" fill="#740318"/>
<path d="M153.52 55.0432C151.662 56.6088 151.662 57.7624 154.005 67.3208C154.409 68.8864 154.166 69.216 152.793 69.216C150.45 69.216 150.692 71.1936 153.278 73.336C154.49 74.3248 155.863 76.3024 156.348 77.7032C156.994 79.928 157.56 80.34 159.58 80.34C161.923 80.34 162.004 80.1752 161.762 77.044C161.519 73.9952 161.681 73.6656 163.862 72.8416C166.125 71.9352 166.448 72.1 167.983 74.2424C169.357 76.0552 170.407 76.632 172.508 76.632C174.043 76.632 175.336 76.4672 175.336 76.22C175.336 74.572 166.771 58.9984 164.59 56.5264C162.327 54.0544 161.277 53.56 158.53 53.56C156.671 53.56 154.57 54.1368 153.52 55.0432ZM161.358 61.9648C163.297 65.096 163.701 66.4144 162.974 66.9088C160.954 68.2272 160.146 67.4032 158.934 62.624C158.287 59.9048 157.964 57.68 158.287 57.68C158.53 57.68 159.984 59.5752 161.358 61.9648Z" fill="#740318"/>
<path d="M246.763 58.5864C245.874 60.4816 243.45 65.5904 241.35 69.9576L237.471 77.868L239.572 79.7632C240.784 80.752 242.077 81.3288 242.562 81.0816C242.966 80.8344 244.905 77.2088 246.763 73.0064L250.238 65.508L249.834 74.16L249.51 82.812L251.934 85.1192C254.116 87.2616 254.52 87.344 256.136 86.3552C258.479 84.9544 267.69 65.5904 267.044 63.448C266.478 61.6352 263.731 60.8112 262.762 62.1296C262.277 62.624 260.822 65.3432 259.449 68.1448C258.075 71.0288 256.702 73.336 256.459 73.336C256.217 73.336 256.298 71.1936 256.54 68.6392C257.267 59.9872 255.894 57.0208 250.399 55.62C248.46 55.1256 248.056 55.4552 246.763 58.5864Z" fill="#740318"/>
<path d="M133.966 64.5192C128.714 67.6504 123.624 71.6056 123.624 72.512C123.624 73.0064 124.513 73.748 125.644 74.3248C127.179 75.0664 127.987 74.984 129.603 73.8304C130.734 73.0888 131.946 72.512 132.35 72.512C132.754 72.512 134.936 76.632 137.279 81.576C140.915 89.6512 141.642 90.64 143.258 90.3104C145.844 89.816 147.864 88.9096 147.864 88.2504C147.864 87.9208 145.763 83.3064 143.178 77.9504L138.491 68.3096L141.158 67.156C144.228 65.8376 144.632 63.86 142.046 63.1184C138.976 62.2944 137.118 62.624 133.966 64.5192Z" fill="#740318"/>
<path d="M272.296 70.2048C272.296 72.1 272.942 73.4184 274.558 74.7368L276.74 76.5496L269.71 83.8008C262.358 91.464 261.954 92.6176 265.428 95.584C266.721 96.6552 267.529 96.0784 274.478 88.6624L282.073 80.5048L284.093 82.6472C286.84 85.696 287.648 85.4488 287.648 81.4936C287.648 79.0216 287.163 77.7032 285.87 76.5496C282.073 73.2536 274.074 67.568 273.185 67.568C272.7 67.568 272.296 68.7216 272.296 70.2048Z" fill="#740318"/>
<path d="M115.706 79.3512C114.251 79.7632 111.666 81.7408 109.888 83.7184C105.848 88.2504 105.606 91.2992 108.999 94.8424C111.666 97.4792 114.655 97.8912 117.968 95.996C121.2 94.1008 125.725 94.4304 127.26 96.5728C128.391 98.3032 128.391 98.5504 127.179 99.4568C126.048 100.281 125.321 100.198 123.139 98.7976C120.311 97.0672 118.614 97.3968 116.352 100.198C115.302 101.352 115.463 101.764 117.564 103.577C119.422 105.225 120.473 105.554 122.978 105.225C126.694 104.73 133.482 99.9512 134.451 97.0672C136.31 91.7112 126.452 86.4376 121.523 90.228C117.806 93.112 112.393 90.3928 113.443 86.108C114.09 83.636 115.14 83.4712 116.352 85.696C117.806 88.4152 124.432 86.4376 124.432 83.224C124.432 80.0104 119.907 77.9504 115.706 79.3512Z" fill="#740318"/>
<path d="M292.819 87.8384C292.415 89.3216 292.738 90.3928 294.031 91.7936C294.92 92.7824 295.728 94.0184 295.728 94.4304C295.728 94.8424 292.092 97.5616 287.648 100.446C279.164 105.884 278.356 107.038 281.022 110.416L282.477 112.311L289.345 107.697C293.062 105.142 297.102 102.341 298.233 101.352L300.414 99.704L302.111 102.67C303.566 105.142 304.05 105.472 305.02 104.648C308.01 102.094 305.909 96.9024 298.637 89.1568C294.92 85.2016 293.546 84.872 292.819 87.8384Z" fill="#740318"/>
<path d="M187.456 95.5015C181.315 97.4791 179.699 98.5504 174.69 103.33C169.68 108.109 166.529 113.877 163.943 123.023C161.842 130.439 161.277 130.934 149.399 135.63C132.754 142.14 126.29 147.084 121.766 156.478C119.422 161.422 119.18 162.658 119.18 169.744C119.18 176.83 119.422 178.066 121.685 182.928C124.755 189.52 130.573 195.7 136.552 198.502C140.43 200.397 142.046 200.644 149.318 200.644C155.944 200.644 157.641 200.891 157.883 201.88C158.126 202.539 159.014 207.483 159.984 212.757C160.954 218.113 162.085 222.48 162.489 222.48C162.893 222.48 167.902 221.491 173.558 220.255C182.446 218.36 185.759 218.113 198.768 218.03C213.635 218.03 221.23 218.937 232.462 221.986C237.39 223.304 236.825 224.128 238.764 213.004C240.703 202.127 240.138 202.951 245.955 202.539C252.904 202.127 262.034 197.595 266.721 192.157C272.054 186.059 274.962 178.89 275.366 170.98C275.851 162.163 274.558 156.313 270.195 147.496C263.489 133.818 251.126 119.068 237.956 108.933C231.169 103.659 217.918 96.9024 211.292 95.172C204.747 93.5239 193.112 93.6063 187.456 95.5015ZM208.626 102.094C220.342 105.142 230.926 111.899 243.45 124.342C262.923 143.623 271.488 162.74 267.125 177.407C264.62 185.812 256.702 193.228 247.571 195.7C244.986 196.359 242.723 196.771 242.562 196.524C242.4 196.359 242.481 194.464 242.723 192.404C243.208 189.355 243.693 188.449 245.39 187.79C249.026 186.389 255.005 181.445 257.267 177.984C260.176 173.452 259.934 172.381 256.54 175.43C254.924 176.83 251.773 178.973 249.43 180.209C245.632 182.269 244.42 182.516 237.148 182.516H229.068L218.16 177.407C212.181 174.606 205.07 171.804 202.404 171.145L197.556 169.991L202.323 165.459C207.01 160.927 216.302 154.83 222.604 152.11L225.836 150.71L221.634 151.204C210.484 152.44 200.788 157.961 188.345 170.156C176.467 181.774 173.882 183.258 165.236 183.34C157.398 183.34 154.651 182.104 148.834 176.171L144.713 171.969L145.521 175.1C146.733 179.467 149.561 183.834 152.954 186.471C154.974 188.037 155.863 189.438 156.106 191.498C156.429 194.299 156.267 194.382 153.278 194.876C146.248 196.112 136.148 192.569 131.542 187.13C130.169 185.565 128.149 182.269 127.018 179.797C125.402 176.089 125.078 174.441 125.402 169.085C125.886 158.702 130.573 151.369 139.784 146.754C145.763 143.706 157.56 138.926 157.964 139.421C158.61 139.998 153.358 146.013 150.773 147.578L148.268 149.144H150.369C153.278 149.144 159.742 144.612 162.893 140.327C164.266 138.514 167.175 132.17 169.195 126.319C173.558 114.042 177.033 108.768 182.931 105.307C190.93 100.446 198.687 99.5392 208.626 102.094ZM219.13 185.894C223.331 187.625 228.341 188.943 231.573 189.273L236.906 189.767L236.421 192.322C236.098 193.722 235.128 199.161 234.158 204.352C233.27 209.543 232.219 214.075 231.977 214.405C231.654 214.734 228.745 214.487 225.432 213.746C215.817 211.768 190.526 211.274 179.78 212.922C174.932 213.663 169.922 214.487 168.791 214.734L166.69 215.229L164.509 203.693C163.378 197.348 162.408 191.992 162.408 191.662C162.408 191.415 164.59 191.168 167.256 191.168C172.831 191.168 178.891 189.108 183.254 185.647C185.759 183.67 187.214 183.258 192.708 182.928C205.474 182.104 211.534 182.763 219.13 185.894Z" fill="#740318"/>
<path d="M96.556 98.9624C94.6168 101.352 91.304 107.285 91.304 108.356C91.304 108.603 92.112 108.768 93.1624 108.768C94.7784 108.768 97.2832 110.581 106.979 118.903C111.989 123.27 113.443 122.858 117.726 116.184C119.665 113.218 121.2 110.581 121.2 110.169C121.2 109.839 119.826 109.592 118.049 109.592C115.382 109.592 114.817 109.922 113.928 112.064C113.362 113.382 112.716 114.536 112.554 114.536C112.312 114.536 111.1 113.712 109.726 112.806C107.383 111.075 107.302 110.416 108.676 106.873C109.08 105.802 108.838 105.472 107.464 105.472C106.494 105.472 105.04 105.884 104.151 106.296C102.454 107.285 99.384 106.131 99.384 104.566C99.384 104.071 100.515 102.258 101.808 100.528C103.182 98.7976 104.232 97.1496 104.232 96.9024C104.232 96.6552 103.02 96.408 101.485 96.408C99.384 96.408 98.172 96.9848 96.556 98.9624Z" fill="#740318"/>
<path d="M302.596 111.57C296.374 114.536 293.95 117.667 293.466 123.188C292.981 129.286 294.758 132.252 298.475 131.593C301.626 131.098 310.595 125.907 314.15 122.529C316.898 119.81 317.302 117.997 315.847 113.794C314.231 109.098 309.383 108.274 302.596 111.57ZM311.807 118.079C309.706 120.139 303.404 123.106 298.96 124.012L296.132 124.589L298.152 122.364C300.738 119.398 307.525 116.184 310.999 116.184H313.746L311.807 118.079Z" fill="#740318"/>
<path d="M88.5568 117.42C84.032 119.892 80.8808 124.671 80.8 129.286C80.8 132.664 80.8808 132.829 82.82 132.334C84.436 131.922 86.6984 132.829 92.7584 136.372C97.0408 138.844 100.919 140.904 101.404 140.904C102.778 140.904 105.848 138.432 105.848 137.278C105.848 136.784 104.636 135.878 103.182 135.301C101.727 134.806 99.788 133.818 98.98 133.158C97.4448 132.005 97.4448 131.84 98.7376 130.522C99.8688 129.368 100.596 129.286 103.343 129.945C107.464 131.016 110.292 129.78 110.292 126.896C110.292 124.918 110.13 124.836 104.798 124.836H99.384V122.364C99.384 116.514 94.4552 114.289 88.5568 117.42ZM91.6272 121.622C92.8392 122.776 93.4856 129.368 92.516 129.368C92.2736 129.368 90.6576 128.462 88.88 127.308C86.5368 125.825 85.8096 124.918 86.2136 123.847C87.5064 120.139 89.4456 119.398 91.6272 121.622Z" fill="#740318"/>
<path d="M171.296 234.593C168.791 235.582 167.983 236.653 168.953 237.806C169.599 238.63 169.68 241.762 169.276 248.436C168.791 256.511 168.872 258.242 170.003 259.972C172.427 263.762 174.528 262.197 174.528 256.676C174.528 251.979 175.094 251.32 179.295 251.32C183.497 251.32 186.082 249.342 187.052 245.552C188.506 239.372 178.002 232.038 171.296 234.593ZM181.477 239.866C182.366 241.35 180.103 244.563 177.679 245.47L175.336 246.294V242.586C175.336 238.96 175.336 238.96 178.083 238.96C179.618 238.96 181.154 239.372 181.477 239.866Z" fill="#740318"/>
<path d="M190.93 234.84C189.153 235.582 189.072 235.994 189.072 247.118V258.654L191.415 260.302C198.122 265.246 207.656 257.994 207.656 248.106C207.656 239.125 198.364 231.791 190.93 234.84ZM198.687 240.938C200.142 242.503 200.626 243.986 200.707 247.53C200.788 251.65 200.546 252.391 198.202 254.781L195.536 257.5V248.189C195.536 243.162 195.859 238.96 196.182 238.96C196.586 238.96 197.718 239.866 198.687 240.938Z" fill="#740318"/>
<path d="M210.08 235.417C210.08 236.241 210.646 242.009 211.454 248.271C212.666 258.489 212.989 259.807 214.686 260.961C217.029 262.526 218.645 261.95 219.291 259.23C219.534 258.159 220.826 254.863 222.119 251.979C229.149 236.406 229.472 235.334 227.371 234.51C225.19 233.686 225.028 233.851 221.796 240.608C220.099 244.234 218.402 247.2 218.079 247.2C217.837 247.2 217.352 245.058 217.029 242.421C216.706 239.784 215.978 236.818 215.251 235.829C213.716 233.604 210.08 233.357 210.08 235.417Z" fill="#740318"/>
<path d="M126.937 273.815C125.644 275.463 126.614 277.606 128.957 278.182C130.007 278.43 130.896 279.171 130.896 279.83C130.896 281.231 129.118 281.314 127.826 279.995C126.452 278.594 125.563 279.83 126.856 281.396C128.957 283.95 133.966 282.055 132.916 279.171C132.593 278.43 131.542 277.523 130.411 277.029C127.745 275.71 127.826 274.062 130.573 274.722C132.108 275.134 132.593 274.969 132.35 274.227C131.866 272.744 128.149 272.414 126.937 273.815Z" fill="#740318"/>
<path d="M134.936 273.568C134.936 273.98 135.34 274.392 135.744 274.392C136.229 274.392 136.552 273.98 136.552 273.568C136.552 273.074 136.229 272.744 135.744 272.744C135.34 272.744 134.936 273.074 134.936 273.568Z" fill="#740318"/>
<path d="M159.984 277.688C159.984 281.561 160.226 282.632 161.196 282.632C162.166 282.632 162.408 281.561 162.408 277.688C162.408 273.815 162.166 272.744 161.196 272.744C160.226 272.744 159.984 273.815 159.984 277.688Z" fill="#740318"/>
<path d="M164.024 273.568C164.024 273.98 164.428 274.392 164.832 274.392C165.317 274.392 165.64 273.98 165.64 273.568C165.64 273.074 165.317 272.744 164.832 272.744C164.428 272.744 164.024 273.074 164.024 273.568Z" fill="#740318"/>
<path d="M167.902 274.145C167.337 276.37 168.145 282.632 168.953 282.632C169.357 282.632 169.68 281.314 169.68 279.748C169.68 278.018 170.084 276.864 170.73 276.864C171.377 276.864 171.377 276.617 170.569 276.122C169.599 275.463 169.599 275.134 170.407 274.062C171.377 272.909 171.296 272.744 169.842 272.744C168.953 272.744 168.064 273.403 167.902 274.145Z" fill="#740318"/>
<path d="M172.912 273.568C172.912 273.98 173.316 274.392 173.72 274.392C174.205 274.392 174.528 273.98 174.528 273.568C174.528 273.074 174.205 272.744 173.72 272.744C173.316 272.744 172.912 273.074 172.912 273.568Z" fill="#740318"/>
<path d="M256.298 275.216C255.732 276.205 255.651 276.864 256.136 276.864C256.54 276.864 256.944 278.018 256.944 279.336C256.944 281.808 258.802 283.538 260.014 282.22C260.338 281.89 260.095 281.396 259.61 281.231C259.045 280.984 258.56 279.995 258.56 278.924C258.56 277.853 259.045 276.782 259.61 276.617C260.418 276.287 260.418 276.122 259.61 276.122C259.045 276.04 258.56 275.463 258.56 274.804C258.56 273.074 257.51 273.238 256.298 275.216Z" fill="#740318"/>
<path d="M263.65 274.145C264.378 274.31 265.67 274.31 266.478 274.145C267.206 273.898 266.559 273.733 265.024 273.733C263.489 273.733 262.842 273.898 263.65 274.145Z" fill="#740318"/>
<path d="M140.026 275.875C138.491 276.122 138.168 276.699 138.168 279.418C138.168 283.291 139.542 283.703 139.946 279.913C140.107 278.265 140.592 277.276 141.4 277.276C142.208 277.276 142.693 278.265 142.854 279.913C143.016 281.396 143.42 282.632 143.824 282.632C144.228 282.632 144.632 281.396 144.794 279.913C144.955 278.265 145.44 277.276 146.248 277.276C147.056 277.276 147.541 278.265 147.702 279.913C147.864 281.396 148.268 282.632 148.753 282.632C149.884 282.632 149.642 277.029 148.51 276.287C147.379 275.628 143.016 275.463 140.026 275.875Z" fill="#740318"/>
<path d="M152.954 275.793C151.258 276.122 151.096 276.617 151.096 281.066C151.096 283.786 151.419 285.928 151.904 285.928C152.389 285.928 152.712 285.022 152.712 283.95C152.712 282.385 153.035 282.055 154.328 282.385C157.883 283.374 159.984 277.853 156.833 276.04C155.944 275.628 155.136 275.298 154.974 275.298C154.813 275.381 153.924 275.628 152.954 275.793ZM156.59 278.759C156.914 280.49 154.57 281.561 153.358 280.325C152.712 279.666 152.712 279.006 153.52 278.1C154.813 276.534 156.267 276.864 156.59 278.759Z" fill="#740318"/>
<path d="M177.598 276.122C174.528 277.935 176.71 283.291 180.184 282.385C181.477 282.055 181.8 282.385 181.8 283.95C181.8 285.022 182.204 285.928 182.608 285.928C183.093 285.928 183.416 283.703 183.416 280.984C183.416 277.276 183.093 276.04 182.285 276.04C181.638 276.04 180.669 275.875 180.022 275.628C179.457 275.463 178.326 275.628 177.598 276.122ZM181.638 278.759C181.962 280.407 179.618 281.561 178.406 280.325C177.194 279.089 178.326 276.699 179.942 277.029C180.75 277.194 181.477 277.935 181.638 278.759Z" fill="#740318"/>
<path d="M195.374 276.122C193.678 277.111 193.435 280.16 194.89 281.643C196.182 282.962 198.364 282.879 199.576 281.396C200.465 280.325 200.222 280.242 198.041 280.654C196.425 280.984 195.536 280.902 195.536 280.242C195.536 279.748 196.667 279.336 197.96 279.336C200.788 279.336 201.273 277.441 198.849 276.04C196.99 275.051 197.071 275.051 195.374 276.122ZM198.364 277.688C198.606 278.1 198.122 278.512 197.152 278.512C196.182 278.512 195.698 278.1 195.94 277.688C196.182 277.194 196.748 276.864 197.152 276.864C197.556 276.864 198.122 277.194 198.364 277.688Z" fill="#740318"/>
<path d="M206.04 276.452C204.99 277.77 205.555 279.336 207.252 279.336C207.898 279.336 208.626 279.748 208.949 280.242C209.353 280.984 208.868 281.066 207.333 280.654C205.636 280.242 205.151 280.407 205.394 281.149C205.636 281.726 206.848 282.22 208.141 282.22C211.292 282.22 211.858 279.666 208.949 278.512C206.202 277.441 206.282 276.534 209.03 277.276C210.888 277.688 211.05 277.606 210.161 276.534C208.787 274.886 207.333 274.886 206.04 276.452Z" fill="#740318"/>
<path d="M222.442 275.793C220.503 276.534 221.392 277.688 223.412 277.194C224.624 276.864 225.432 277.029 225.432 277.606C225.432 278.1 224.786 278.512 223.897 278.512C221.958 278.512 220.503 280.325 221.311 281.643C221.634 282.22 223.089 282.55 224.462 282.467C226.886 282.302 227.048 282.055 227.048 279.254C227.048 275.71 225.432 274.557 222.442 275.793ZM225.432 280.16C225.432 280.572 224.866 280.984 224.22 280.984C223.574 280.984 223.008 280.572 223.008 280.16C223.008 279.666 223.574 279.336 224.22 279.336C224.866 279.336 225.432 279.666 225.432 280.16Z" fill="#740318"/>
<path d="M233.674 275.958C233.027 276.287 232.623 277.358 232.704 278.182C232.785 279.089 232.785 279.913 232.704 280.16C231.33 283.95 233.027 286.422 236.34 285.598C239.006 284.939 238.926 282.962 236.178 281.478C234.078 280.325 233.997 280.242 235.774 280.16C237.39 280.16 237.956 279.336 237.633 277.441C237.633 277.111 238.037 276.864 238.602 276.782C239.087 276.782 238.845 276.452 237.956 276.04C235.855 275.134 234.966 275.134 233.674 275.958ZM236.098 278.1C236.098 278.512 235.694 279.006 235.209 279.171C234.724 279.336 234.32 278.842 234.32 278.1C234.32 277.358 234.724 276.864 235.209 277.029C235.694 277.194 236.098 277.688 236.098 278.1ZM236.744 283.456C236.744 283.868 236.017 284.28 235.128 284.28C234.239 284.28 233.512 283.868 233.512 283.456C233.512 282.962 234.239 282.632 235.128 282.632C236.017 282.632 236.744 282.962 236.744 283.456Z" fill="#740318"/>
<path d="M241.188 277.194C239.33 279.995 240.784 282.879 243.774 282.467C244.986 282.302 246.036 281.808 246.198 281.314C246.359 280.737 245.713 280.49 244.42 280.737C243.208 280.984 242.4 280.819 242.4 280.242C242.4 279.748 243.531 279.336 244.824 279.336C247.652 279.336 248.137 277.441 245.713 276.04C243.37 274.804 242.562 274.969 241.188 277.194ZM245.228 277.688C245.47 278.1 244.986 278.512 244.097 278.512C243.127 278.512 242.4 278.1 242.4 277.688C242.4 277.194 242.885 276.864 243.531 276.864C244.178 276.864 244.986 277.194 245.228 277.688Z" fill="#740318"/>
<path d="M249.914 275.793C248.218 276.452 248.702 278.512 250.884 279.501C251.934 279.995 252.662 280.737 252.419 281.149C252.177 281.561 251.45 281.478 250.803 280.902C249.43 279.748 248.218 280.654 249.43 281.89C249.914 282.385 251.126 282.632 252.177 282.467C254.762 282.138 254.843 279.006 252.338 278.677C251.288 278.512 250.48 278.018 250.48 277.606C250.48 277.111 251.207 277.029 252.096 277.276C254.035 277.853 254.278 276.452 252.419 275.71C251.692 275.463 251.126 275.216 251.046 275.298C250.965 275.298 250.399 275.546 249.914 275.793Z" fill="#740318"/>
<path d="M262.923 276.534C261.469 277.77 261.469 277.77 263.57 277.358C264.782 277.029 265.913 277.194 266.236 277.606C266.478 278.018 265.67 278.512 264.458 278.677C262.842 278.842 262.196 279.418 262.196 280.572C262.196 281.89 262.762 282.22 265.266 282.385C268.175 282.467 268.256 282.385 268.256 279.666C268.256 277.77 267.771 276.617 266.721 276.04C264.701 274.969 264.782 274.969 262.923 276.534ZM265.832 280.16C265.832 280.572 265.266 280.984 264.539 280.984C263.893 280.984 263.57 280.572 263.812 280.16C264.054 279.666 264.62 279.336 265.105 279.336C265.509 279.336 265.832 279.666 265.832 280.16Z" fill="#740318"/>
<path d="M271.165 276.287C269.387 277.606 269.71 280.819 271.73 282.138C274.882 284.115 278.114 278.512 275.043 276.287C274.235 275.71 273.346 275.216 273.104 275.216C272.862 275.216 271.973 275.71 271.165 276.287ZM274.558 279.171C274.801 280.572 274.397 280.984 273.185 280.984C272.054 280.984 271.488 280.49 271.488 279.501C271.488 276.37 274.154 276.122 274.558 279.171Z" fill="#740318"/>
<path d="M134.936 279.336C134.936 281.149 135.34 282.632 135.744 282.632C136.229 282.632 136.552 281.149 136.552 279.336C136.552 277.523 136.229 276.04 135.744 276.04C135.34 276.04 134.936 277.523 134.936 279.336Z" fill="#740318"/>
<path d="M164.024 279.336C164.024 281.149 164.428 282.632 164.832 282.632C165.317 282.632 165.64 281.149 165.64 279.336C165.64 277.523 165.317 276.04 164.832 276.04C164.428 276.04 164.024 277.523 164.024 279.336Z" fill="#740318"/>
<path d="M172.912 279.336C172.912 281.149 173.316 282.632 173.72 282.632C174.205 282.632 174.528 281.149 174.528 279.336C174.528 277.523 174.205 276.04 173.72 276.04C173.316 276.04 172.912 277.523 172.912 279.336Z" fill="#740318"/>
<path d="M185.032 278.43C185.032 281.396 186.406 282.55 189.718 282.467C192.142 282.385 192.304 282.22 192.304 279.171C192.304 276.946 191.981 276.04 191.092 276.04C190.284 276.04 189.88 276.864 189.88 278.594C189.88 280.572 189.557 281.066 188.506 280.819C187.618 280.654 186.971 279.666 186.81 278.265C186.486 275.298 185.032 275.381 185.032 278.43Z" fill="#740318"/>
<path d="M212.504 278.43C212.504 281.396 213.878 282.55 217.19 282.467C219.614 282.385 219.776 282.22 219.776 279.171C219.776 276.946 219.453 276.04 218.564 276.04C217.756 276.04 217.352 276.864 217.352 278.594C217.352 280.572 217.029 281.066 215.978 280.819C215.09 280.654 214.443 279.666 214.282 278.265C213.958 275.298 212.504 275.381 212.504 278.43Z" fill="#740318"/>
<path d="M277.952 282.797C277.952 284.362 278.114 284.445 278.76 283.456C279.81 281.89 279.81 280.984 278.76 280.984C278.356 280.984 277.952 281.808 277.952 282.797Z" fill="#740318"/>
<path d="M157.56 293.344C157.56 293.756 158.126 294.168 158.772 294.168C159.418 294.168 159.984 293.756 159.984 293.344C159.984 292.85 159.418 292.52 158.772 292.52C158.126 292.52 157.56 292.85 157.56 293.344Z" fill="#740318"/>
<path d="M253.712 295.816C253.712 297.629 254.116 299.112 254.52 299.112C255.005 299.112 255.328 297.629 255.328 295.816C255.328 294.003 255.005 292.52 254.52 292.52C254.116 292.52 253.712 294.003 253.712 295.816Z" fill="#740318"/>
<path d="M151.096 296.228C150.046 297.546 150.611 299.112 152.308 299.112C152.954 299.112 153.682 299.524 154.005 300.018C154.409 300.76 153.924 300.842 152.389 300.43C150.692 300.018 150.207 300.183 150.45 300.925C150.692 301.502 151.904 301.996 153.197 301.996C156.348 301.996 156.914 299.442 154.005 298.288C151.258 297.217 151.338 296.31 154.086 297.052C155.944 297.464 156.106 297.382 155.217 296.31C153.843 294.662 152.389 294.662 151.096 296.228Z" fill="#740318"/>
<path d="M164.428 295.816C164.186 296.228 163.458 296.393 162.812 296.063C161.842 295.734 161.6 296.393 161.6 299.03C161.6 300.925 162.004 302.408 162.408 302.408C162.893 302.408 163.216 301.254 163.216 299.936C163.216 298.288 163.62 297.464 164.428 297.464C165.074 297.464 165.64 296.887 165.64 296.228C165.64 294.827 165.155 294.662 164.428 295.816Z" fill="#740318"/>
<path d="M175.659 296.31C174.205 297.546 174.205 297.546 176.306 297.134C177.518 296.805 178.649 296.97 178.972 297.382C179.214 297.794 178.406 298.288 177.194 298.453C175.578 298.618 174.932 299.194 174.932 300.348C174.932 301.666 175.498 301.996 178.002 302.161C180.911 302.243 180.992 302.161 180.992 299.442C180.992 297.546 180.507 296.393 179.457 295.816C177.437 294.745 177.518 294.745 175.659 296.31ZM178.568 299.936C178.568 300.348 178.002 300.76 177.275 300.76C176.629 300.76 176.306 300.348 176.548 299.936C176.79 299.442 177.356 299.112 177.841 299.112C178.245 299.112 178.568 299.442 178.568 299.936Z" fill="#740318"/>
<path d="M187.294 295.898C185.517 296.887 185.436 300.183 186.971 301.584C187.618 302.078 188.991 302.408 190.042 302.243C192.466 301.914 193.112 297.629 191.011 296.063C189.314 294.827 189.072 294.827 187.294 295.898ZM190.526 298.947C190.688 300.101 190.365 300.76 189.557 300.76C188.022 300.76 187.214 299.359 187.779 297.794C188.426 295.981 190.203 296.805 190.526 298.947Z" fill="#740318"/>
<path d="M199.01 295.569C197.556 296.146 197.718 299.112 199.091 299.112C199.738 299.112 200.546 299.524 200.869 300.101C201.273 300.76 200.869 300.842 199.657 300.513C198.526 300.266 197.96 300.43 198.202 301.007C198.606 302.408 202.081 302.738 202.889 301.502C203.616 300.266 202.323 298.288 200.707 298.288C200.061 298.288 199.576 297.876 199.576 297.382C199.576 296.887 200.303 296.722 201.192 297.052C203.131 297.629 203.374 296.228 201.515 295.486C200.788 295.239 200.222 294.992 200.142 295.074C200.061 295.074 199.495 295.322 199.01 295.569Z" fill="#740318"/>
<path d="M214.766 295.898C212.989 296.887 212.908 300.183 214.443 301.584C215.898 302.738 219.13 302.408 219.534 301.007C219.776 300.348 219.049 300.101 217.594 300.183C215.817 300.348 215.332 300.018 215.332 298.7C215.332 297.382 215.817 297.134 217.675 297.299C219.776 297.546 219.938 297.382 219.049 296.31C217.837 294.827 216.706 294.662 214.766 295.898Z" fill="#740318"/>
<path d="M222.604 296.97C220.746 299.771 222.2 302.655 225.19 302.243C226.402 302.078 227.452 301.584 227.614 301.09C227.775 300.513 227.129 300.266 225.836 300.513C224.624 300.76 223.816 300.595 223.816 300.018C223.816 299.524 224.947 299.112 226.24 299.112C229.068 299.112 229.553 297.217 227.129 295.816C224.786 294.58 223.978 294.745 222.604 296.97ZM226.644 297.464C226.886 297.876 226.402 298.288 225.513 298.288C224.543 298.288 223.816 297.876 223.816 297.464C223.816 296.97 224.301 296.64 224.947 296.64C225.594 296.64 226.402 296.97 226.644 297.464Z" fill="#740318"/>
<path d="M231.33 295.569C229.634 296.228 230.118 298.288 232.3 299.277C233.35 299.771 234.078 300.513 233.835 300.925C233.593 301.337 232.866 301.254 232.219 300.678C230.846 299.524 229.634 300.43 230.846 301.666C231.33 302.161 232.542 302.408 233.593 302.243C236.178 301.914 236.259 298.782 233.754 298.453C232.704 298.288 231.896 297.794 231.896 297.382C231.896 296.887 232.623 296.805 233.512 297.052C235.451 297.629 235.694 296.228 233.835 295.486C233.108 295.239 232.542 294.992 232.462 295.074C232.381 295.074 231.815 295.322 231.33 295.569Z" fill="#740318"/>
<path d="M238.602 295.569C236.906 296.228 237.39 298.288 239.572 299.277C240.622 299.771 241.35 300.513 241.107 300.925C240.865 301.337 240.138 301.254 239.491 300.678C238.118 299.524 236.906 300.43 238.118 301.666C238.602 302.161 239.814 302.408 240.865 302.243C243.45 301.914 243.531 298.782 241.026 298.453C239.976 298.288 239.168 297.794 239.168 297.382C239.168 296.887 239.895 296.805 240.784 297.052C242.723 297.629 242.966 296.228 241.107 295.486C240.38 295.239 239.814 294.992 239.734 295.074C239.653 295.074 239.087 295.322 238.602 295.569Z" fill="#740318"/>
<path d="M246.117 296.063C244.339 297.382 244.662 300.595 246.682 301.914C249.834 303.891 253.066 298.288 249.995 296.063C249.187 295.486 248.298 294.992 248.056 294.992C247.814 294.992 246.925 295.486 246.117 296.063ZM249.51 298.947C249.753 300.348 249.349 300.76 248.137 300.76C247.006 300.76 246.44 300.266 246.44 299.277C246.44 296.146 249.106 295.898 249.51 298.947Z" fill="#740318"/>
<path d="M157.56 299.112C157.56 301.502 157.883 302.408 158.772 302.408C159.661 302.408 159.984 301.502 159.984 299.112C159.984 296.722 159.661 295.816 158.772 295.816C157.883 295.816 157.56 296.722 157.56 299.112Z" fill="#740318"/>
<path d="M167.579 298.865C168.953 302.902 170.65 303.232 171.942 299.689C173.074 296.393 173.154 295.816 172.185 295.816C171.781 295.816 171.054 296.805 170.65 298.041L169.842 300.348L168.953 298.041C167.66 294.58 166.367 295.322 167.579 298.865Z" fill="#740318"/>
<path d="M205.394 298.865C205.636 301.831 205.798 301.996 208.706 302.161C211.696 302.243 211.696 302.243 211.696 299.03C211.696 295.404 210.322 294.662 209.918 298.041C209.757 299.442 209.11 300.43 208.302 300.595C207.171 300.842 206.848 300.348 206.848 298.37C206.848 296.97 206.444 295.816 205.959 295.816C205.474 295.816 205.232 297.134 205.394 298.865Z" fill="#740318"/>
<path d="M253.712 301.584C253.712 301.996 254.116 302.408 254.52 302.408C255.005 302.408 255.328 301.996 255.328 301.584C255.328 301.09 255.005 300.76 254.52 300.76C254.116 300.76 253.712 301.09 253.712 301.584Z" fill="#740318"/>
</svg>
