<svg width="572" height="496" viewBox="0 0 572 496" fill="none" xmlns="http://www.w3.org/2000/svg">
<g clip-path="url(#clip0_76_1435)">
<path d="M480.798 496C531.167 496 572 492.058 572 487.195C572 482.333 531.167 478.391 480.798 478.391C430.429 478.391 389.596 482.333 389.596 487.195C389.596 492.058 430.429 496 480.798 496Z" fill="#E6E6E6"/>
<path d="M92.8948 136.608C92.924 127.646 86.9706 120.316 79.9824 120.316H15.1373C8.25965 120.316 2.31739 127.525 2.23687 136.344C2.21192 138.851 2.64126 141.33 3.49107 143.588C4.34087 145.845 5.5879 147.819 7.13389 149.353C7.53019 149.731 7.84204 150.237 8.03829 150.819C8.23454 151.4 8.30832 152.038 8.25225 152.667C8.17702 153.382 8.1393 154.102 8.13935 154.823V212.342C8.13935 214.459 8.46454 216.556 9.09635 218.512C9.72815 220.468 10.6542 222.245 11.8216 223.742C12.9891 225.239 14.375 226.427 15.9003 227.237C17.4256 228.047 19.0604 228.464 20.7114 228.464H73.9978C77.3322 228.464 80.5299 226.766 82.8876 223.742C85.2453 220.719 86.5699 216.618 86.5699 212.342V154.823C86.5699 154.192 86.5413 153.562 86.484 152.935C86.4333 152.315 86.513 151.688 86.7147 151.12C86.9164 150.553 87.2329 150.064 87.6313 149.706C89.2539 148.212 90.5769 146.246 91.4919 143.969C92.4069 141.692 92.8877 139.169 92.8948 136.608Z" fill="#3F3D56"/>
<path d="M90.0864 135.03C89.7631 131.909 88.5612 129.049 86.7074 126.986C84.8535 124.923 82.4754 123.801 80.0212 123.831H15.1178C12.8234 123.804 10.5906 124.782 8.78822 126.603C6.98581 128.424 5.72158 130.979 5.20433 133.845C4.76144 136.48 4.98216 139.227 5.83468 141.69C6.68719 144.154 8.1275 146.207 9.9481 147.553C10.4737 147.939 10.8844 148.537 11.1157 149.255C11.347 149.972 11.3857 150.768 11.2258 151.517C10.9955 152.595 10.8792 153.708 10.88 154.826V212.339C10.8803 215.279 11.681 218.126 13.1437 220.388C14.6065 222.651 16.6395 224.188 18.8917 224.733C19.4925 224.877 20.1022 224.949 20.7133 224.95H73.9997C74.8993 224.951 75.7948 224.793 76.6605 224.479C78.7233 223.735 80.5399 222.146 81.8339 219.956C83.128 217.766 83.8285 215.093 83.8288 212.345V154.821C83.829 153.774 83.727 152.731 83.5253 151.717C83.4703 151.436 83.4419 151.147 83.4409 150.857C83.4413 150.221 83.5765 149.598 83.832 149.053C84.0875 148.508 84.4537 148.062 84.8915 147.764L84.8957 147.759C86.6616 146.557 88.1025 144.697 89.0289 142.425C89.9554 140.153 90.3241 137.575 90.0864 135.03Z" fill="#740318"/>
<path opacity="0.2" d="M83.8292 160.331V154.923H76.6608V123.831H72.4441V154.923H49.8848V123.831H45.6681V154.923H23.1088V123.831H18.8921V154.923H10.8804V160.331H18.8921V176.553H10.8804V181.961H18.8921V198.183H10.8804V203.59H18.8921V224.733C19.4928 224.877 20.1026 224.949 20.7137 224.95H23.1088V203.59H45.6681V224.95H49.8848V203.59H72.4441V224.95H74.0001C74.8997 224.951 75.7951 224.793 76.6608 224.479V203.59H83.8292V198.183H76.6608V181.961H83.8292V176.553H76.6608V160.331H83.8292ZM23.1088 160.331H45.6681V176.553H23.1088V160.331ZM23.1088 198.183V181.961H45.6681V198.183H23.1088ZM72.4442 198.183H49.8848V181.961H72.4442V198.183ZM72.4442 176.553H49.8848V160.331H72.4442V176.553Z" fill="black"/>
<path d="M92.5996 0C92.5996 7.58394 91.4348 15.0936 89.1716 22.1003C86.9084 29.1069 83.5913 35.4733 79.4095 40.836C75.2277 46.1986 70.2632 50.4525 64.7994 53.3548C59.3357 56.257 53.4796 57.7508 47.5657 57.7508C41.6517 57.7508 35.7957 56.257 30.3319 53.3548C24.8682 50.4525 19.9037 46.1986 15.7219 40.836C11.5401 35.4733 8.22291 29.1069 5.95974 22.1003C3.69658 15.0936 2.53174 7.58394 2.53174 0H92.5996Z" fill="#740318"/>
<path d="M19.0528 10.2516C19.0528 11.7614 18.6352 12.9854 18.1201 12.9854C17.6051 12.9854 17.1875 11.7614 17.1875 10.2516C17.2441 9.22996 17.5735 8.26452 18.1201 7.51782C18.6668 8.26452 18.9962 9.22996 19.0528 10.2516Z" fill="#3F3D56"/>
<path d="M66.2183 19.8198C66.2183 21.3297 65.8008 22.5536 65.2857 22.5536C64.7706 22.5536 64.353 21.3297 64.353 19.8198C64.4096 18.7982 64.739 17.8328 65.2857 17.0861C65.8324 17.8328 66.1617 18.7982 66.2183 19.8198Z" fill="#3F3D56"/>
<path d="M31.5772 14.3523C31.5772 15.8621 31.1597 17.0861 30.6446 17.0861C30.1295 17.0861 29.7119 15.8621 29.7119 14.3523C29.7685 13.3307 30.0979 12.3652 30.6446 11.6185C31.1913 12.3652 31.5206 13.3307 31.5772 14.3523Z" fill="#3F3D56"/>
<path d="M50.23 35.8806C50.23 37.3904 49.8125 38.6144 49.2974 38.6144C48.7823 38.6144 48.3647 37.3904 48.3647 35.8806C48.4214 34.859 48.7507 33.8935 49.2974 33.1469C49.8441 33.8935 50.1734 34.859 50.23 35.8806Z" fill="#3F3D56"/>
<path d="M30.2447 33.1468C30.2447 34.6567 29.8271 35.8806 29.3121 35.8806C28.797 35.8806 28.3794 34.6567 28.3794 33.1468C28.436 32.1252 28.7654 31.1598 29.3121 30.4131C29.8587 31.1598 30.1881 32.1252 30.2447 33.1468Z" fill="#3F3D56"/>
<path d="M76.8775 7.51782C76.8775 9.02765 76.4599 10.2516 75.9449 10.2516C75.4298 10.2516 75.0122 9.02765 75.0122 7.51782C75.0688 6.49618 75.3982 5.53075 75.9449 4.78406C76.4915 5.53075 76.8209 6.49618 76.8775 7.51782Z" fill="#3F3D56"/>
<path d="M59.8233 41.3481C59.8233 42.858 59.4057 44.0819 58.8907 44.0819C58.3756 44.0819 57.958 42.858 57.958 41.3481C58.0146 40.3265 58.344 39.3611 58.8907 38.6144C59.4373 39.3611 59.7667 40.3265 59.8233 41.3481Z" fill="#3F3D56"/>
<path d="M47.5654 60.9971C34.9547 60.9788 22.8645 54.5465 13.9474 43.1113C5.0302 31.676 0.0142742 16.1718 0 0H5.06295C5.06295 7.15762 6.16231 14.2452 8.29826 20.8579C10.4342 27.4707 13.5649 33.4792 17.5116 38.5405C21.4583 43.6017 26.1438 47.6164 31.3004 50.3555C36.457 53.0946 41.9839 54.5044 47.5654 54.5044C53.1469 54.5044 58.6738 53.0946 63.8304 50.3555C68.987 47.6164 73.6725 43.6017 77.6192 38.5405C81.5659 33.4792 84.6966 27.4707 86.8325 20.8579C88.9685 14.2452 90.0679 7.15762 90.0679 0H95.1308C95.1165 16.1718 90.1006 31.676 81.1835 43.1112C72.2663 54.5464 60.1762 60.9788 47.5654 60.9971Z" fill="#3F3D56"/>
<path d="M157.127 20.9407H142.221V40.0564H157.127V20.9407Z" fill="#3F3D56"/>
<path d="M303.21 29.5427H183.213V31.4543H303.21V29.5427Z" fill="#3F3D56"/>
<path d="M157.127 164.832H142.221V183.948H157.127V164.832Z" fill="#3F3D56"/>
<path d="M303.21 173.434H183.213V175.346H303.21V173.434Z" fill="#3F3D56"/>
<path d="M157.127 307.724H142.221V326.839H157.127V307.724Z" fill="#3F3D56"/>
<path d="M303.21 316.326H183.213V318.237H303.21V316.326Z" fill="#3F3D56"/>
<path d="M471.283 131.272L452.242 150.519L411.894 132.334C411.894 132.334 398.175 112.546 390.417 127.284C387.761 132.332 405.163 141.657 406.804 142.524C410.909 144.69 450.225 172.351 454.078 168.722C457.931 165.093 479.608 146.738 479.608 146.738L471.283 131.272Z" fill="#A0616A"/>
<path d="M536.282 98.439C518.236 89.7913 501.068 85.6998 487.149 98.439V57.3241C487.149 53.1869 487.785 49.0903 489.019 45.2681C490.254 41.446 492.064 37.973 494.345 35.0476C496.626 32.1222 499.334 29.8017 502.315 28.2185C505.295 26.6353 508.49 25.8204 511.716 25.8204C514.942 25.8204 518.137 26.6353 521.117 28.2185C524.098 29.8017 526.806 32.1223 529.087 35.0477C531.368 37.973 533.178 41.446 534.412 45.2682C535.647 49.0904 536.282 53.187 536.282 57.3241L536.282 98.439Z" fill="#2F2E41"/>
<path d="M490.936 188.255L489.462 201.493C489.462 201.493 485.775 215.676 489.462 242.152L430.106 449.7L473.978 465.774L495.729 352.308L526.328 265.79L523.379 364.127L507.895 469.083L553.61 466.719L566.931 286.752C569.085 258.309 565.238 229.648 555.792 203.766C552.097 193.701 548.123 185.769 544.518 184.618C533.702 181.164 490.936 188.255 490.936 188.255Z" fill="#2F2E41"/>
<path d="M435.636 448.281L420.521 469.083C420.521 469.083 391.396 488.467 412.041 490.831C432.687 493.195 439.692 482.794 439.692 482.794C439.692 482.794 465.498 480.43 465.13 475.702C464.761 470.974 462.918 455.373 462.918 455.373L435.636 448.281Z" fill="#2F2E41"/>
<path d="M517.665 453.297V467.953C517.665 467.953 518.034 474.099 517.665 475.517C517.296 476.936 511.766 494.428 530.2 490.646C548.633 486.864 541.26 472.208 541.26 472.208L536.836 450.933L517.665 453.297Z" fill="#2F2E41"/>
<path d="M511.489 86.136C521.721 86.136 530.015 75.4997 530.015 62.3791C530.015 49.2585 521.721 38.6222 511.489 38.6222C501.258 38.6222 492.964 49.2585 492.964 62.3791C492.964 75.4997 501.258 86.136 511.489 86.136Z" fill="#A0616A"/>
<path d="M524.301 75.4987C524.301 75.4987 521.72 106.702 524.301 112.375C526.882 118.048 498.125 106.702 498.125 106.702C498.125 106.702 504.393 85.427 502.181 76.917C499.969 68.407 524.301 75.4987 524.301 75.4987Z" fill="#A0616A"/>
<path d="M539.048 165.326L544.946 186.128L490.015 194.165C490.015 194.165 484.116 192.747 484.116 186.601C484.116 180.455 477.849 158.707 477.849 158.707C477.849 158.707 462.499 142.753 455.126 138.498C452.453 136.956 456.451 137.593 458.7 131.05C459.375 129.083 460.182 127.007 461.063 124.904C461.782 123.178 462.556 121.429 463.349 119.703C464.311 117.599 465.303 115.528 466.265 113.557C469.178 107.595 471.836 102.584 472.687 100.556C475.268 94.4096 499.53 93.8612 499.53 93.8612C506.468 99.4589 526.513 100.556 526.513 100.556C526.513 100.556 540.301 107.955 546.045 113.557C546.462 113.959 539.048 165.326 539.048 165.326Z" fill="#E6E6E6"/>
<path d="M527.122 33.86V33.2958L526.599 33.3331C523.629 30.4326 520.183 28.4376 516.522 27.4995C512.861 26.5614 509.082 26.7048 505.47 27.9188C508.932 29.0919 512.151 31.2247 514.9 34.1666L497.143 35.4317L489.648 56.7901H494.72L498.808 47.1788V56.7901H515.963L517.129 49.3146L520.368 56.7901H523.738C523.759 57.3231 523.791 57.8523 523.791 58.3919L520.46 99.507L536.283 90.9636V58.3919C536.286 53.6842 535.464 49.0358 533.878 44.7898C532.293 40.5438 529.984 36.8086 527.122 33.86Z" fill="#2F2E41"/>
<path d="M551.951 142.633L550.845 179.982L547.896 252.316C547.896 252.316 551.951 283.519 541.628 283.047C531.305 282.574 539.047 246.17 539.047 246.17L536.098 188.964L539.047 148.779L551.951 142.633Z" fill="#A0616A"/>
<path d="M554.9 162.962C554.9 167.217 536.282 166.035 536.282 166.035L526.513 100.556C526.513 100.556 540.301 107.955 546.045 113.557C547.397 115.355 548.502 117.433 549.315 119.703C549.754 121.221 550.17 122.979 550.565 124.904C550.955 126.814 551.32 128.889 551.663 131.05C553.272 141.588 554.353 152.247 554.9 162.962Z" fill="#E6E6E6"/>
<path d="M47.0643 314.858L18.8449 311.111C19.0618 309.19 18.8953 307.229 18.3611 305.412C17.8268 303.595 16.9422 301.982 15.7899 300.722C14.6376 299.463 13.2552 298.599 11.7717 298.21C10.2883 297.821 8.75228 297.921 7.3071 298.5C5.86192 299.079 4.55474 300.118 3.50767 301.521C2.46059 302.923 1.70778 304.643 1.31954 306.52C0.931304 308.397 0.920316 310.369 1.28759 312.253C1.65485 314.136 2.38841 315.87 3.41973 317.291C2.37189 318.743 1.63384 320.516 1.27696 322.44C0.92009 324.365 0.956471 326.374 1.38259 328.275C1.80871 330.176 2.61015 331.904 3.70938 333.291C4.80862 334.679 6.16846 335.679 7.65737 336.195C9.14628 336.711 10.7139 336.726 12.2085 336.238C13.7032 335.75 15.0743 334.775 16.1893 333.409C17.3043 332.042 18.1254 330.33 18.5733 328.437C19.0211 326.544 19.0805 324.536 18.7457 322.605L47.0643 319.267V314.858Z" fill="#CCCCCC"/>
<path d="M75.7599 339.73C86.8534 343.228 98.029 333.138 98.6073 318.507C98.6234 318.101 98.6314 317.693 98.6315 317.282C98.6316 316.871 98.6235 316.462 98.6073 316.057C98.029 301.425 86.8534 291.335 75.7599 294.833L38.1254 306.701C37.0412 306.7 35.9675 306.972 34.9655 307.503C33.9636 308.035 33.0531 308.814 32.2861 309.796C31.5191 310.779 30.9107 311.946 30.4955 313.23C30.0804 314.515 29.8667 315.891 29.8667 317.282C29.8667 318.672 30.0804 320.049 30.4955 321.333C30.9107 322.617 31.5191 323.784 32.2861 324.767C33.0531 325.749 33.9636 326.529 34.9655 327.06C35.9675 327.591 37.0412 327.864 38.1254 327.862L75.7599 339.73Z" fill="#740318"/>
</g>
<defs>
<clipPath id="clip0_76_1435">
<rect width="572" height="496" fill="white"/>
</clipPath>
</defs>
</svg>
