<svg width="546" height="381" viewBox="0 0 546 381" fill="none" xmlns="http://www.w3.org/2000/svg">
<g clip-path="url(#clip0_75_1221)">
<path d="M363.179 348.617L362.5 347.539C363.505 346.814 364.503 346.08 365.494 345.335L366.194 346.399C365.197 347.149 364.192 347.888 363.179 348.617Z" fill="#CCCCCC"/>
<path d="M265.02 381L265.011 379.7C267.471 379.681 269.958 379.607 272.402 379.481L272.461 380.78C270 380.907 267.496 380.981 265.02 381ZM257.576 380.894C255.106 380.804 252.605 380.659 250.144 380.46L250.235 379.164C252.68 379.361 255.164 379.506 257.618 379.594L257.576 380.894ZM279.885 380.232L279.777 378.937C282.218 378.703 284.69 378.41 287.123 378.067L287.282 379.355C284.833 379.702 282.344 379.996 279.885 380.232ZM242.734 379.698C240.275 379.39 237.794 379.023 235.36 378.607L235.552 377.323C237.969 377.736 240.433 378.101 242.875 378.407L242.734 379.698ZM294.639 378.149L294.429 376.869C296.844 376.418 299.284 375.905 301.682 375.345L301.942 376.615C299.527 377.179 297.07 377.695 294.639 378.149ZM228.036 377.186C225.615 376.66 223.171 376.073 220.773 375.439L221.065 374.176C223.447 374.806 225.874 375.39 228.278 375.912L228.036 377.186ZM309.179 374.755L308.869 373.497C311.242 372.83 313.633 372.1 315.977 371.328L316.336 372.57C313.976 373.348 311.568 374.083 309.179 374.755ZM213.569 373.36C211.195 372.618 208.802 371.81 206.455 370.96L206.846 369.729C209.176 370.573 211.553 371.375 213.91 372.112L213.569 373.36ZM323.401 370.065L322.994 368.84C325.306 367.962 327.632 367.02 329.907 366.04L330.362 367.245C328.071 368.233 325.729 369.182 323.401 370.065ZM199.444 368.242C197.134 367.287 194.813 366.267 192.548 365.212L193.034 364.02C195.284 365.068 197.588 366.081 199.883 367.029L199.444 368.242ZM337.206 364.115L336.704 362.931C338.941 361.847 341.185 360.699 343.372 359.519L343.921 360.68C341.718 361.868 339.459 363.024 337.206 364.115ZM185.778 361.875C183.555 360.717 181.324 359.494 179.147 358.238L179.725 357.093C181.887 358.341 184.103 359.556 186.311 360.706L185.778 361.875ZM350.495 356.947L349.902 355.812C352.045 354.533 354.191 353.189 356.281 351.816L356.918 352.924C354.814 354.306 352.653 355.659 350.495 356.947ZM172.666 354.307C170.544 352.957 168.417 351.538 166.345 350.091L167.011 349.003C169.068 350.44 171.18 351.849 173.288 353.19L172.666 354.307ZM160.195 345.598C158.186 344.064 156.178 342.461 154.227 340.836L154.975 339.81C156.913 341.425 158.907 343.016 160.903 344.54L160.195 345.598ZM148.45 335.813C146.564 334.103 144.688 332.328 142.874 330.539L143.699 329.583C145.501 331.36 147.364 333.123 149.237 334.821L148.45 335.813ZM137.508 325.023C135.763 323.152 134.032 321.218 132.362 319.274L133.259 318.394C134.917 320.326 136.637 322.247 138.37 324.104L137.508 325.023ZM127.445 313.303C125.853 311.288 124.278 309.208 122.764 307.12L123.725 306.323C125.23 308.397 126.794 310.463 128.374 312.464L127.445 313.303ZM118.328 300.734C116.898 298.583 115.49 296.371 114.146 294.159L115.166 293.45C116.502 295.647 117.899 297.845 119.32 299.981L118.328 300.734ZM110.224 287.404C108.966 285.133 107.737 282.804 106.57 280.481L107.642 279.866C108.801 282.173 110.022 284.486 111.271 286.741L110.224 287.404ZM103.191 273.402C102.116 271.029 101.074 268.599 100.093 266.18L101.21 265.663C102.184 268.066 103.219 270.479 104.286 272.836L103.191 273.402ZM97.282 258.828C96.3961 256.365 95.5477 253.849 94.7604 251.351L95.9134 250.936C96.6954 253.417 97.5379 255.915 98.4177 258.362L97.282 258.828Z" fill="#CCCCCC"/>
<path d="M92.5142 243.69C92.1744 242.438 91.8463 241.181 91.5299 239.919L92.7052 239.583C93.0192 240.836 93.3451 242.084 93.6826 243.327L92.5142 243.69Z" fill="#CCCCCC"/>
<path d="M439.655 169.299C439.52 168.009 439.374 166.723 439.215 165.44L440.421 165.27C440.581 166.561 440.729 167.856 440.864 169.155L439.655 169.299Z" fill="#CCCCCC"/>
<path d="M423.913 274.152L422.82 273.581C423.865 271.299 424.881 268.962 425.839 266.634L426.953 267.158C425.988 269.502 424.965 271.855 423.913 274.152ZM429.724 260.037L428.591 259.562C429.459 257.196 430.294 254.779 431.072 252.376L432.221 252.801C431.439 255.22 430.598 257.655 429.724 260.037ZM434.441 245.463L433.276 245.088C433.962 242.65 434.609 240.168 435.2 237.709L436.378 238.032C435.783 240.508 435.131 243.008 434.441 245.463ZM438.031 230.525L436.841 230.253C437.338 227.767 437.794 225.236 438.196 222.73L439.396 222.95C438.99 225.474 438.531 228.022 438.031 230.525ZM440.472 215.323L439.265 215.155C439.572 212.638 439.835 210.076 440.046 207.539L441.258 207.655C441.045 210.209 440.78 212.789 440.472 215.323ZM441.755 199.959L440.54 199.895C440.656 197.361 440.726 194.784 440.747 192.237L441.964 192.248C441.942 194.813 441.872 197.407 441.755 199.959ZM440.669 184.574C440.596 182.032 440.474 179.459 440.305 176.926L441.519 176.834C441.688 179.384 441.812 181.975 441.885 184.534L440.669 184.574Z" fill="#CCCCCC"/>
<path d="M418.845 284.41L417.787 283.768C418.385 282.642 418.972 281.509 419.549 280.37L420.619 280.988C420.038 282.136 419.447 283.276 418.845 284.41Z" fill="#CCCCCC"/>
<path d="M103.83 109.184L102.732 108.625C103.257 107.446 103.794 106.274 104.342 105.109L105.429 105.692C104.885 106.85 104.352 108.014 103.83 109.184Z" fill="#CCCCCC"/>
<path d="M108.827 98.8201L107.763 98.189C108.942 95.9175 110.182 93.6425 111.447 91.4262L112.485 92.1037C111.229 94.3044 109.998 96.5642 108.827 98.8201ZM415.477 93.0165C414.235 90.8113 412.93 88.6007 411.6 86.4464L412.616 85.7302C413.955 87.8994 415.268 90.1252 416.52 92.3453L415.477 93.0165ZM116.4 85.5517L115.388 84.8298C116.738 82.6697 118.149 80.51 119.58 78.4112L120.563 79.1769C119.142 81.2618 117.741 83.4066 116.4 85.5517ZM407.474 80.0512C406.064 77.9587 404.595 75.8695 403.107 73.8415L404.064 73.0389C405.562 75.0809 407.042 77.1845 408.462 79.2912L407.474 80.0512ZM124.967 72.9903L124.014 72.182C125.525 70.1467 127.095 68.1181 128.681 66.1523L129.603 67.0019C128.027 68.9541 126.468 70.9687 124.967 72.9903ZM398.504 67.827C396.938 65.8628 395.313 63.9081 393.676 62.0176L394.569 61.1344C396.217 63.0379 397.853 65.0056 399.43 66.9831L398.504 67.827ZM134.464 61.2208L133.575 60.3319C135.235 58.4375 136.955 56.5527 138.687 54.7304L139.541 55.6568C137.82 57.467 136.112 59.3391 134.464 61.2208ZM388.629 56.4235C386.92 54.6044 385.151 52.7976 383.372 51.0535L384.195 50.0953C385.986 51.8516 387.766 53.6707 389.487 55.5022L388.629 56.4235ZM144.826 50.3198L144.008 49.3566C145.807 47.6131 147.665 45.8848 149.53 44.2199L150.31 45.2181C148.457 46.8714 146.612 48.588 144.826 50.3198ZM377.914 45.9171C376.07 44.252 374.169 42.6053 372.264 41.0227L373.011 39.996C374.929 41.5894 376.843 43.2475 378.7 44.9241L377.914 45.9171ZM155.984 40.3601L155.243 39.329C157.168 37.7486 159.151 36.1886 161.137 34.692L161.838 35.7549C159.865 37.2413 157.896 38.7909 155.984 40.3601ZM366.431 36.3787C364.465 34.8799 362.444 33.4047 360.424 31.9938L361.089 30.9052C363.123 32.3259 365.158 33.811 367.137 35.3203L366.431 36.3787ZM167.864 31.41L167.204 30.3172C169.244 28.9105 171.339 27.5295 173.433 26.2126L174.05 27.3333C171.971 28.6413 169.89 30.0127 167.864 31.41ZM354.253 27.8759C352.18 26.5552 350.053 25.2618 347.928 24.032L348.508 22.8884C350.647 24.1269 352.789 25.4291 354.876 26.759L354.253 27.8759ZM180.387 23.5313L179.814 22.3846C181.956 21.1604 184.151 19.9683 186.336 18.8413L186.864 20.0121C184.695 21.1315 182.515 22.3157 180.387 23.5313ZM341.46 20.469C339.286 19.3318 337.065 18.2301 334.859 17.1946L335.348 16.004C337.57 17.0466 339.806 18.1559 341.995 19.3013L341.46 20.469ZM193.471 16.7822L192.987 15.5885C195.214 14.5589 197.492 13.5643 199.759 12.6325L200.195 13.8465C197.945 14.7716 195.682 15.7593 193.471 16.7822ZM328.137 14.2138C325.888 13.2748 323.588 12.3725 321.303 11.5328L321.699 10.3029C324 11.1486 326.315 12.0569 328.579 13.0027L328.137 14.2138ZM207.027 11.2106L206.637 9.97877C208.939 9.14763 211.286 8.35776 213.612 7.63107L213.953 8.87936C211.643 9.60098 209.313 10.3854 207.027 11.2106ZM314.37 9.1562C312.054 8.4184 309.692 7.7225 307.35 7.08819L307.649 5.82783C310.007 6.46659 312.385 7.16692 314.718 7.90981L314.37 9.1562ZM220.962 6.8558L220.669 5.59354C223.026 4.96907 225.425 4.38905 227.798 3.87031L228.042 5.14401C225.685 5.65958 223.303 6.23547 220.962 6.8558ZM300.254 5.3329C297.9 4.80462 295.496 4.3208 293.109 3.89444L293.31 2.61185C295.713 3.04108 298.133 3.52839 300.504 4.06045L300.254 5.3329ZM235.194 3.74364L235 2.45978C237.397 2.04453 239.836 1.67721 242.249 1.368L242.394 2.65884C239.998 2.96615 237.576 3.33124 235.194 3.74364ZM285.915 2.77186C283.526 2.45248 281.093 2.18105 278.684 1.9658L278.785 0.669883C281.211 0.886712 283.661 1.15975 286.066 1.48166L285.915 2.77186ZM249.629 1.89087L249.533 0.594315C251.954 0.390809 254.413 0.237471 256.841 0.138735L256.887 1.43815C254.475 1.53627 252.033 1.68832 249.629 1.89087ZM271.427 1.47561C269.018 1.36577 266.572 1.30671 264.158 1.30036L264.161 0C266.592 0.00635226 269.054 0.0657265 271.479 0.176524L271.427 1.47561Z" fill="#CCCCCC"/>
<path d="M420.842 103.238C420.281 102.088 419.71 100.945 419.128 99.8087L420.196 99.1846C420.781 100.328 421.356 101.479 421.921 102.637L420.842 103.238Z" fill="#CCCCCC"/>
<path d="M224.788 127.435H213.533V229.188C213.53 231.774 212.568 234.252 210.857 236.081C209.146 237.909 206.827 238.937 204.408 238.941H20.3799V247.718C20.3838 250.648 21.4746 253.457 23.4133 255.529C25.352 257.601 27.9803 258.767 30.7219 258.771H224.788C227.529 258.767 230.158 257.601 232.096 255.529C234.035 253.457 235.126 250.648 235.13 247.718V138.488C235.126 135.558 234.035 132.749 232.096 130.677C230.158 128.605 227.529 127.439 224.788 127.435Z" fill="#F2F2F2"/>
<path d="M204.408 108.905H10.3421C7.60037 108.909 4.97207 110.075 3.0334 112.146C1.09473 114.218 0.00387851 117.027 0 119.958V229.188C0.00388012 232.118 1.09474 234.927 3.03341 236.999C4.97208 239.071 7.60037 240.237 10.3421 240.241H204.408C207.149 240.237 209.778 239.071 211.716 236.999C213.655 234.927 214.746 232.118 214.75 229.188V119.958C214.746 117.027 213.655 114.218 211.716 112.146C209.778 110.075 207.149 108.909 204.408 108.905ZM213.533 229.188C213.53 231.774 212.568 234.252 210.857 236.081C209.146 237.909 206.827 238.937 204.408 238.941H10.3421C7.92277 238.937 5.60341 237.909 3.89272 236.081C2.18202 234.252 1.21966 231.774 1.21671 229.188V119.958C1.21966 117.372 2.18202 114.893 3.89272 113.065C5.60341 111.237 7.92277 110.208 10.3421 110.205H204.408C206.827 110.208 209.146 111.237 210.857 113.065C212.568 114.893 213.53 117.372 213.533 119.958V229.188Z" fill="#3F3D56"/>
<path d="M189.771 189.527H121.635C120.345 189.527 119.107 188.979 118.194 188.003C117.281 187.028 116.769 185.705 116.769 184.325C116.769 182.946 117.281 181.623 118.194 180.647C119.107 179.672 120.345 179.124 121.635 179.124H189.771C191.062 179.124 192.3 179.672 193.213 180.647C194.125 181.623 194.638 182.946 194.638 184.325C194.638 185.705 194.125 187.028 193.213 188.003C192.3 188.979 191.062 189.527 189.771 189.527Z" fill="#CCCCCC"/>
<path d="M147.186 167.421H121.635C120.345 167.421 119.107 166.873 118.194 165.897C117.281 164.922 116.769 163.599 116.769 162.219C116.769 160.84 117.281 159.517 118.194 158.541C119.107 157.566 120.345 157.018 121.635 157.018H147.186C148.477 157.018 149.715 157.566 150.628 158.541C151.54 159.517 152.053 160.84 152.053 162.219C152.053 163.599 151.54 164.922 150.628 165.897C149.715 166.873 148.477 167.421 147.186 167.421Z" fill="#CCCCCC"/>
<path d="M90.9494 215.534H28.897C27.526 215.533 26.2116 214.95 25.2422 213.914C24.2728 212.878 23.7275 211.473 23.726 210.008V136.537C23.7275 135.072 24.2728 133.667 25.2422 132.631C26.2116 131.595 27.526 131.012 28.897 131.011H90.9494C92.3203 131.012 93.6347 131.595 94.6041 132.631C95.5735 133.667 96.1188 135.072 96.1204 136.537V210.008C96.1188 211.473 95.5735 212.878 94.6041 213.914C93.6347 214.95 92.3203 215.533 90.9494 215.534Z" fill="#740318"/>
<path d="M60.8622 200.231C59.4939 200.19 57.791 200.139 56.4799 199.115C56.0893 198.798 55.7684 198.393 55.5397 197.929C55.3109 197.465 55.1798 196.953 55.1556 196.429C55.1319 196.057 55.1891 195.684 55.3226 195.34C55.4562 194.995 55.6625 194.688 55.9255 194.442C56.3163 194.131 56.7739 193.928 57.2567 193.854C57.7394 193.78 58.2318 193.836 58.6891 194.017L57.5721 185.293L58.392 185.173L59.7053 195.429L59.0206 195.094C58.2267 194.704 57.1369 194.507 56.4597 195.118C56.2935 195.278 56.1639 195.476 56.0812 195.698C55.9985 195.921 55.9648 196.16 55.9828 196.398C56.0028 196.788 56.1012 197.169 56.2712 197.514C56.4413 197.86 56.679 198.162 56.9681 198.401C57.9884 199.198 59.3458 199.301 60.8854 199.347L60.8622 200.231Z" fill="#3F3D56"/>
<path d="M53.517 186.045H49.0594V186.93H53.517V186.045Z" fill="#3F3D56"/>
<path d="M67.587 186.045H63.1294V186.93H67.587V186.045Z" fill="#3F3D56"/>
<path d="M41.3151 173.831C37.7255 173.393 34.9454 169.718 34.6401 165.988C34.2768 161.551 36.6945 157.337 40.0115 154.847C43.4802 152.243 47.8019 151.156 51.9834 150.917C60.1405 150.483 68.157 153.307 74.474 158.839C77.6072 161.621 80.5334 165.163 81.6425 169.443C82.6057 173.159 81.8219 177.369 79.0252 179.972C78.3334 180.61 77.5253 181.087 76.6521 181.375C75.7789 181.662 74.8594 181.753 73.9517 181.641C71.7817 181.401 69.7795 180.181 68.0463 178.834C64.6749 176.215 61.9072 172.565 57.7998 171.196C54.7881 170.192 50.8799 171.076 49.0394 173.987C48.6218 174.653 48.3512 175.412 48.2479 176.206C48.2099 176.376 48.2335 176.554 48.314 176.706C48.3945 176.857 48.5259 176.97 48.6815 177.022C48.8402 177.068 49.0094 177.045 49.1523 176.958C49.2952 176.871 49.4004 176.728 49.4451 176.559C49.9282 172.893 54.1462 171.525 57.106 172.362C61.4216 173.583 64.3186 177.698 67.8594 180.313C69.6922 181.774 71.8514 182.695 74.1215 182.985C76.0898 183.15 78.0432 182.508 79.5853 181.191C82.6102 178.638 83.767 174.247 83.0981 170.294C82.3236 165.717 79.4407 161.793 76.2775 158.756C69.8649 152.663 61.5398 149.376 52.961 149.55C48.5854 149.657 44.0199 150.623 40.2503 153.095C36.5939 155.492 33.7678 159.503 33.3984 164.165C33.0733 168.269 35.1334 172.562 38.6699 174.36C39.5037 174.782 40.3978 175.051 41.3151 175.158C42.1075 175.254 42.1011 173.927 41.3151 173.831Z" fill="#3F3D56"/>
<path d="M534.441 299.733H524.671V333.75C524.667 336.68 523.576 339.489 521.638 341.561C519.699 343.633 517.071 344.799 514.329 344.803H270.415V349.796C270.417 353.072 271.636 356.212 273.803 358.528C275.97 360.844 278.909 362.147 281.973 362.15H534.441C537.506 362.147 540.444 360.844 542.612 358.528C544.779 356.212 545.997 353.072 546 349.796V312.086C545.997 308.811 544.779 305.67 542.612 303.354C540.444 301.038 537.506 299.736 534.441 299.733Z" fill="#F2F2F2"/>
<path d="M514.329 283.686H261.861C258.796 283.689 255.858 284.991 253.691 287.308C251.524 289.624 250.305 292.764 250.302 296.039V333.75C250.305 337.025 251.524 340.166 253.691 342.482C255.858 344.798 258.796 346.1 261.861 346.103H514.329C517.394 346.1 520.332 344.798 522.499 342.482C524.666 340.166 525.885 337.025 525.888 333.75V296.039C525.885 292.764 524.666 289.624 522.499 287.308C520.332 284.991 517.394 283.689 514.329 283.686ZM524.671 333.75C524.667 336.68 523.576 339.489 521.638 341.561C519.699 343.633 517.071 344.799 514.329 344.803H261.861C259.119 344.799 256.491 343.633 254.552 341.561C252.614 339.489 251.523 336.68 251.519 333.75V296.039C251.523 293.109 252.614 290.3 254.552 288.228C256.491 286.156 259.119 284.991 261.861 284.986H514.329C517.071 284.991 519.699 286.156 521.638 288.228C523.576 290.3 524.667 293.109 524.671 296.039V333.75Z" fill="#3F3D56"/>
<path d="M306.168 294.091C302.318 294.091 298.554 295.311 295.353 297.597C292.152 299.883 289.656 303.133 288.183 306.935C286.709 310.736 286.324 314.92 287.075 318.956C287.826 322.992 289.68 326.699 292.403 329.609C295.125 332.518 298.594 334.5 302.371 335.303C306.147 336.105 310.061 335.693 313.618 334.119C317.176 332.544 320.216 329.877 322.355 326.456C324.494 323.034 325.636 319.012 325.636 314.897C325.63 309.38 323.577 304.092 319.927 300.192C316.278 296.291 311.33 294.097 306.168 294.091Z" fill="#740318"/>
<path d="M484.623 332.451H345.309C344.019 332.451 342.781 331.903 341.868 330.928C340.955 329.953 340.443 328.63 340.443 327.25C340.443 325.871 340.955 324.548 341.868 323.572C342.781 322.597 344.019 322.049 345.309 322.049H484.623C485.914 322.049 487.152 322.597 488.065 323.572C488.977 324.548 489.49 325.871 489.49 327.25C489.49 328.63 488.977 329.953 488.065 330.928C487.152 331.903 485.914 332.451 484.623 332.451Z" fill="#CCCCCC"/>
<path d="M414.662 310.345H345.309C344.019 310.345 342.781 309.797 341.868 308.822C340.955 307.846 340.443 306.523 340.443 305.144C340.443 303.764 340.955 302.441 341.868 301.466C342.781 300.49 344.019 299.942 345.309 299.942H414.662C415.953 299.942 417.191 300.49 418.104 301.466C419.016 302.441 419.529 303.764 419.529 305.144C419.529 306.523 419.016 307.846 418.104 308.822C417.191 309.797 415.953 310.345 414.662 310.345Z" fill="#CCCCCC"/>
<path d="M304.848 323.994C304.345 323.995 303.856 323.821 303.453 323.498L303.428 323.478L298.173 319.182C297.682 318.779 297.36 318.184 297.279 317.528C297.198 316.872 297.364 316.208 297.741 315.683C298.118 315.158 298.674 314.814 299.288 314.727C299.902 314.64 300.523 314.818 301.015 315.221L304.419 318.01L312.462 306.796C312.648 306.536 312.881 306.318 313.146 306.154C313.412 305.99 313.705 305.883 314.009 305.84C314.313 305.797 314.621 305.819 314.917 305.904C315.214 305.988 315.491 306.134 315.735 306.334L315.735 306.334L315.685 306.408L315.737 306.334C316.227 306.737 316.548 307.332 316.629 307.988C316.71 308.644 316.545 309.307 316.168 309.833L306.708 323.018C306.489 323.321 306.208 323.567 305.885 323.736C305.563 323.905 305.209 323.992 304.85 323.991L304.848 323.994Z" fill="white"/>
<path d="M498.548 114.431H497.258C497.283 114.711 497.295 114.997 497.295 115.289V153C497.291 155.93 496.2 158.739 494.262 160.811C492.323 162.883 489.695 164.049 486.953 164.053H365.927V164.495C365.927 164.781 365.939 165.067 365.957 165.353C366.161 168.473 367.464 171.394 369.603 173.527C371.743 175.66 374.559 176.847 377.485 176.848H498.548C501.613 176.846 504.551 175.543 506.718 173.227C508.886 170.911 510.104 167.77 510.107 164.495V126.785C510.104 123.509 508.886 120.369 506.718 118.053C504.551 115.737 501.613 114.434 498.548 114.431Z" fill="#F2F2F2"/>
<path d="M498.481 114.431C498.278 111.312 496.975 108.391 494.835 106.257C492.696 104.124 489.879 102.937 486.953 102.936H365.89C362.825 102.939 359.887 104.241 357.72 106.557C355.553 108.873 354.334 112.014 354.331 115.289V153C354.334 156.275 355.553 159.416 357.72 161.732C359.887 164.048 362.825 165.35 365.89 165.353H486.953C490.018 165.35 492.956 164.048 495.123 161.732C497.29 159.416 498.509 156.275 498.512 153V115.289C498.512 115.003 498.499 114.717 498.481 114.431ZM497.295 153C497.291 155.93 496.2 158.739 494.262 160.811C492.323 162.883 489.695 164.049 486.953 164.053H365.89C363.148 164.049 360.52 162.883 358.581 160.811C356.643 158.739 355.552 155.93 355.548 153V115.289C355.552 112.359 356.643 109.55 358.581 107.478C360.52 105.406 363.148 104.24 365.89 104.236H486.953C489.555 104.24 492.061 105.291 493.97 107.181C495.88 109.07 497.054 111.658 497.258 114.431C497.283 114.711 497.295 114.997 497.295 115.289V153Z" fill="#3F3D56"/>
<path d="M456.232 150.401H396.613C395.322 150.401 394.084 149.853 393.171 148.877C392.258 147.902 391.746 146.579 391.746 145.199C391.746 143.82 392.258 142.497 393.171 141.522C394.084 140.546 395.322 139.998 396.613 139.998H456.232C457.522 139.998 458.76 140.546 459.673 141.522C460.586 142.497 461.098 143.82 461.098 145.199C461.098 146.579 460.586 147.902 459.673 148.877C458.76 149.853 457.522 150.401 456.232 150.401Z" fill="#CCCCCC"/>
<path d="M437.981 128.295H396.613C395.322 128.295 394.084 127.747 393.171 126.771C392.258 125.796 391.746 124.473 391.746 123.093C391.746 121.714 392.258 120.391 393.171 119.415C394.084 118.44 395.322 117.892 396.613 117.892H437.981C439.272 117.892 440.51 118.44 441.422 119.415C442.335 120.391 442.848 121.714 442.848 123.093C442.848 124.473 442.335 125.796 441.422 126.771C440.51 127.747 439.272 128.295 437.981 128.295Z" fill="#CCCCCC"/>
</g>
<defs>
<clipPath id="clip0_75_1221">
<rect width="546" height="381" fill="white"/>
</clipPath>
</defs>
</svg>
