<svg width="553" height="583" viewBox="0 0 553 583" fill="none" xmlns="http://www.w3.org/2000/svg">
<g clip-path="url(#clip0_75_1298)">
<path d="M553 579.927H179.827V581.722H553V579.927Z" fill="#3F3D56"/>
<path d="M483.357 274.672C484.075 275.613 484.608 276.712 484.922 277.898C485.235 279.084 485.321 280.329 485.176 281.555C485.03 282.78 484.655 283.958 484.075 285.011C483.495 286.065 482.723 286.971 481.809 287.67L443.189 317.243L426.183 329.888C425.217 330.606 424.046 330.898 422.898 330.706C421.749 330.514 420.706 329.853 419.971 328.851C419.542 328.267 419.233 327.586 419.063 326.855C418.894 326.124 418.868 325.361 418.989 324.618C419.11 323.875 419.374 323.171 419.763 322.553C420.152 321.935 420.656 321.419 421.242 321.04L437.713 310.373L466.46 279.838L447.98 257.7L461.669 246.25L483.357 274.672Z" fill="#A0616A"/>
<path d="M392.54 553.123H383.092L377.481 466.099L401.437 465.336L392.54 553.123Z" fill="#A0616A"/>
<path d="M393.224 581.368C390.705 582.65 388.595 572.262 386.47 574.591C380.527 581.105 371.426 582.523 363.493 579.679L366.269 579.644C365.79 579.473 365.348 579.195 364.968 578.827C364.589 578.459 364.28 578.009 364.061 577.504C363.843 576.999 363.718 576.45 363.695 575.89C363.672 575.329 363.751 574.77 363.927 574.245C364.139 573.616 364.484 573.055 364.933 572.608C365.382 572.161 365.921 571.842 366.505 571.68L372.826 569.917L382.75 550.451L392.882 549.688C395.14 552.9 396.717 556.641 397.492 560.63C398.268 564.619 398.222 568.752 397.359 572.718C396.439 576.903 395.02 580.454 393.224 581.368Z" fill="#2F2E41"/>
<path d="M455.441 553.123H445.994L440.383 466.099L465.024 460.756L455.441 553.123Z" fill="#A0616A"/>
<path d="M456.126 581.368C453.607 582.65 451.497 572.262 449.372 574.591C443.429 581.105 434.328 582.523 426.395 579.679L429.171 579.644C428.692 579.473 428.25 579.195 427.87 578.827C427.491 578.459 427.182 578.009 426.963 577.504C426.744 576.999 426.62 576.45 426.597 575.89C426.574 575.329 426.653 574.77 426.829 574.245C427.041 573.616 427.386 573.055 427.835 572.608C428.284 572.161 428.823 571.842 429.407 571.68L435.728 569.917L445.652 550.451L456.468 548.925L456.741 549.423C458.832 553.182 460.18 557.394 460.696 561.78C461.211 566.166 460.882 570.623 459.73 574.856C458.83 578.07 457.606 580.614 456.126 581.368Z" fill="#2F2E41"/>
<path d="M466.153 248.218C457.465 249.567 451.451 254.873 449.001 265.458L433.032 232.574C432.085 230.484 431.845 228.084 432.356 225.813C432.867 223.542 434.095 221.552 435.814 220.209C437.639 218.782 439.884 218.188 442.088 218.548C444.293 218.908 446.291 220.195 447.673 222.145L466.153 248.218Z" fill="#740318"/>
<path d="M482.887 456.939C444.06 476.099 404.324 478.457 363.793 466.1C378.593 402.077 396.069 344.186 395.962 296.632L435.66 292.815L441.772 303.623C456.274 329.264 466.284 357.741 471.272 387.542L482.887 456.939Z" fill="#2F2E41"/>
<path d="M417.864 198.158C429.205 198.158 438.398 187.905 438.398 175.257C438.398 162.609 429.205 152.356 417.864 152.356C406.524 152.356 397.331 162.609 397.331 175.257C397.331 187.905 406.524 198.158 417.864 198.158Z" fill="#A0616A"/>
<path d="M440.451 215.715L415.126 217.242L411.02 192.051L431.553 188.234L440.451 215.715Z" fill="#A0616A"/>
<path d="M437.713 296.632L409.969 297.504L395.962 299.686C389.086 274.355 383.298 249.082 397.331 227.929L413.758 209.608L438.398 208.845L438.724 209.053C442.637 211.553 445.67 215.466 447.322 220.146C448.975 224.826 449.149 229.994 447.815 234.799C441.7 256.96 437.773 277.887 437.713 296.632Z" fill="#740318"/>
<path d="M395.277 367.625L393.556 393.857C393.464 395.262 392.92 396.583 392.024 397.576C391.128 398.569 389.94 399.167 388.68 399.261C387.954 399.315 387.225 399.2 386.541 398.922C385.857 398.645 385.232 398.212 384.707 397.65C384.181 397.088 383.766 396.411 383.489 395.66C383.211 394.91 383.076 394.103 383.094 393.292L383.642 367.625L400.753 295.105L401.437 250.83L420.602 250.067L419.233 301.212L395.277 367.625Z" fill="#A0616A"/>
<path d="M422.655 253.884C414.53 250.199 406.942 251.433 400.069 259.227L401.01 221.845C401.129 219.507 401.999 217.295 403.461 215.615C404.923 213.934 406.879 212.897 408.97 212.695C411.19 212.479 413.4 213.219 415.147 214.762C416.893 216.305 418.045 218.534 418.366 220.993L422.655 253.884Z" fill="#740318"/>
<path d="M461.327 277.166H398.357C413.047 233.783 417.784 193.424 398.357 158.844C398.691 148.458 410.635 139.455 419.91 140.449C430.865 141.624 445.586 150.602 447.638 162.661L461.327 277.166Z" fill="#2F2E41"/>
<path d="M260.646 138.543H257.774V50.7893C257.774 44.1195 256.596 37.5151 254.308 31.353C252.019 25.191 248.665 19.592 244.436 14.8758C240.208 10.1596 235.187 6.41845 229.662 3.86606C224.137 1.31367 218.216 -1.99874e-05 212.235 2.28087e-10H45.5387C39.5585 -1.47275e-05 33.6368 1.31368 28.1118 3.86608C22.5868 6.41847 17.5666 10.1596 13.338 14.8758C9.10931 19.592 5.75494 25.191 3.46641 31.353C1.17788 37.5151 -6.60256e-06 44.1195 0 50.7893V532.211C-4.71611e-06 538.88 1.17788 545.485 3.46641 551.647C5.75495 557.809 9.10931 563.408 13.338 568.124C17.5666 572.84 22.5868 576.581 28.1118 579.134C33.6368 581.686 39.5585 583 45.5387 583H212.235C218.216 583 224.137 581.686 229.662 579.134C235.187 576.581 240.208 572.84 244.436 568.124C248.665 563.408 252.019 557.809 254.308 551.647C256.596 545.485 257.774 538.88 257.774 532.211V201.007H260.646V138.543Z" fill="#3F3D56"/>
<path d="M214.073 13.2136H192.314C193.314 15.9498 193.696 18.9184 193.426 21.858C193.156 24.7976 192.241 27.6179 190.763 30.0706C189.285 32.5232 187.289 34.5328 184.951 35.9224C182.613 37.312 180.004 38.039 177.354 38.0392H81.856C79.2064 38.039 76.5976 37.312 74.2593 35.9224C71.921 34.5328 69.925 32.5232 68.4472 30.0706C66.9693 27.618 66.0549 24.7976 65.7845 21.858C65.5142 18.9184 65.8961 15.9498 66.8968 13.2136H46.5734C42.1075 13.2136 37.6852 14.1947 33.5592 16.1008C29.4332 18.0069 25.6842 20.8007 22.5263 24.3227C19.3684 27.8447 16.8634 32.0259 15.1544 36.6277C13.4453 41.2294 12.5657 46.1615 12.5657 51.1424V531.857C12.5657 536.838 13.4453 541.771 15.1544 546.372C16.8634 550.974 19.3684 555.155 22.5263 558.677C25.6842 562.199 29.4332 564.993 33.5592 566.899C37.6852 568.805 42.1075 569.786 46.5734 569.786H214.073C218.539 569.786 222.961 568.805 227.087 566.899C231.213 564.993 234.962 562.199 238.12 558.677C241.278 555.155 243.783 550.974 245.492 546.372C247.201 541.771 248.081 536.838 248.081 531.857V51.1424C248.081 41.083 244.498 31.4357 238.12 24.3227C231.742 17.2097 223.093 13.2136 214.073 13.2136Z" fill="white"/>
<path d="M218.668 88.3047H41.978V257.33H218.668V88.3047Z" fill="#E6E6E6"/>
<path d="M94.4105 292.577C101.551 292.577 107.339 286.122 107.339 278.158C107.339 270.194 101.551 263.739 94.4105 263.739C87.2702 263.739 81.4819 270.194 81.4819 278.158C81.4819 286.122 87.2702 292.577 94.4105 292.577Z" fill="#740318"/>
<path d="M100.875 276.957H95.4882V270.949H93.3334V276.957H87.9465V279.36H93.3334V285.368H95.4882V279.36H100.875V276.957Z" fill="white"/>
<path d="M162.645 292.577C169.785 292.577 175.573 286.122 175.573 278.158C175.573 270.194 169.785 263.739 162.645 263.739C155.504 263.739 149.716 270.194 149.716 278.158C149.716 286.122 155.504 292.577 162.645 292.577Z" fill="#740318"/>
<path d="M169.109 279.36V276.956H156.18V279.36H169.109Z" fill="white"/>
<path d="M136.913 109.385H122.95C122.459 109.385 121.988 109.602 121.641 109.989C121.294 110.377 121.099 110.902 121.099 111.449V118.285C121.099 118.832 121.294 119.358 121.641 119.745C121.988 120.132 122.459 120.35 122.95 120.35H125.264V130.591H134.599V120.35H136.913C137.404 120.35 137.875 120.132 138.222 119.745C138.569 119.358 138.764 118.832 138.764 118.285V111.449C138.764 110.902 138.569 110.377 138.222 109.99C137.875 109.602 137.404 109.385 136.913 109.385Z" fill="#740318"/>
<path d="M150.898 171.943C142.347 157.987 137.975 141.371 138.41 124.474C138.418 124.084 138.304 123.703 138.089 123.396C137.873 123.089 137.569 122.875 137.228 122.789V119.836H122.481V122.748H122.278C122.079 122.748 121.883 122.792 121.699 122.877C121.516 122.962 121.349 123.087 121.209 123.244C121.068 123.401 120.957 123.587 120.881 123.792C120.805 123.997 120.767 124.216 120.767 124.438C120.767 124.479 120.768 124.52 120.771 124.561C121.933 142.623 118.01 158.821 109.002 173.154C108.484 173.978 108.219 174.967 108.247 175.972L109.86 231.602C109.898 232.843 110.365 234.019 111.163 234.885C111.961 235.751 113.027 236.24 114.141 236.25H147.496C148.621 236.24 149.699 235.74 150.499 234.856C151.299 233.973 151.759 232.776 151.779 231.52L152.4 177.508C152.419 175.526 151.895 173.584 150.898 171.943Z" fill="#3F3D56"/>
<path opacity="0.2" d="M134.002 111.612C134.002 112.793 133.581 113.926 132.832 114.762C132.083 115.597 131.068 116.066 130.008 116.066C128.949 116.066 127.933 115.597 127.184 114.762C126.435 113.926 126.014 112.793 126.014 111.612" fill="black"/>
<path d="M145.618 190.421H141.579C141.194 187.63 139.925 185.086 138.004 183.247C136.082 181.409 133.634 180.399 131.102 180.399C128.57 180.399 126.122 181.409 124.2 183.247C122.279 185.086 121.01 187.63 120.625 190.421H116.585C116.156 190.421 115.731 190.525 115.341 190.725C114.95 190.925 114.603 191.217 114.323 191.581C114.043 191.945 113.837 192.372 113.719 192.832C113.601 193.293 113.574 193.777 113.639 194.251L118.027 226.056H143.219L148.548 194.358C148.629 193.878 148.614 193.384 148.504 192.911C148.394 192.438 148.192 191.998 147.912 191.622C147.632 191.247 147.282 190.944 146.885 190.736C146.489 190.529 146.056 190.421 145.618 190.421Z" fill="#740318"/>
<path d="M218.668 326.222H41.978V495.247H218.668V326.222Z" fill="#E6E6E6"/>
<path d="M94.4105 530.495C101.551 530.495 107.339 524.039 107.339 516.075C107.339 508.112 101.551 501.656 94.4105 501.656C87.2702 501.656 81.4819 508.112 81.4819 516.075C81.4819 524.039 87.2702 530.495 94.4105 530.495Z" fill="#740318"/>
<path d="M100.875 514.874H95.4882V508.866H93.3334V514.874H87.9465V517.277H93.3334V523.285H95.4882V517.277H100.875V514.874Z" fill="white"/>
<path d="M162.645 530.495C169.785 530.495 175.573 524.039 175.573 516.075C175.573 508.112 169.785 501.656 162.645 501.656C155.504 501.656 149.716 508.112 149.716 516.075C149.716 524.039 155.504 530.495 162.645 530.495Z" fill="#740318"/>
<path d="M169.109 517.277V514.874H156.18V517.277H169.109Z" fill="white"/>
<path d="M165.107 446.3L165.204 446.3C168.531 446.332 171.789 445.244 174.553 443.179C177.317 441.114 179.459 438.168 180.699 434.725C184.608 423.703 185.523 411.642 183.331 400.045C181.138 388.447 175.936 377.825 168.371 369.5C160.806 361.176 151.212 355.517 140.785 353.229C130.357 350.941 119.557 352.124 109.728 356.632C99.8991 361.139 91.4762 368.772 85.5081 378.579C79.5399 388.386 76.2902 399.934 76.1635 411.786C76.0368 423.638 79.0388 435.269 84.7956 445.232C90.5524 455.195 98.8097 463.05 108.539 467.817C111.563 469.31 114.921 469.75 118.173 469.077C121.425 468.405 124.419 466.652 126.761 464.049C131.787 458.414 137.762 453.946 144.343 450.899C150.925 447.853 157.981 446.29 165.107 446.3Z" fill="white"/>
<path d="M137.28 428.012C147.159 428.012 155.168 419.079 155.168 408.06C155.168 397.041 147.159 388.109 137.28 388.109C127.4 388.109 119.391 397.041 119.391 408.06C119.391 419.079 127.4 428.012 137.28 428.012Z" fill="#F9A825"/>
</g>
<defs>
<clipPath id="clip0_75_1298">
<rect width="553" height="583" fill="white"/>
</clipPath>
</defs>
</svg>
