<svg width="499" height="461" viewBox="0 0 499 461" fill="none" xmlns="http://www.w3.org/2000/svg">
<g clip-path="url(#clip0_76_1512)">
<path d="M498.278 29.0532H0.722142C0.530618 29.0532 0.346938 28.9681 0.21151 28.8168C0.076082 28.6654 0 28.4602 0 28.2461C0 28.0321 0.076082 27.8268 0.21151 27.6755C0.346938 27.5241 0.530618 27.4391 0.722142 27.4391H498.278C498.469 27.4391 498.653 27.5241 498.788 27.6755C498.924 27.8268 499 28.0321 499 28.2461C499 28.4602 498.924 28.6654 498.788 28.8168C498.653 28.9681 498.469 29.0532 498.278 29.0532Z" fill="#CACACA"/>
<path d="M16.9758 17.7547C21.3629 17.7547 24.9193 13.7802 24.9193 8.87736C24.9193 3.97453 21.3629 0 16.9758 0C12.5887 0 9.03223 3.97453 9.03223 8.87736C9.03223 13.7802 12.5887 17.7547 16.9758 17.7547Z" fill="#3F3D56"/>
<path d="M44.4172 17.7547C48.8043 17.7547 52.3608 13.7802 52.3608 8.87736C52.3608 3.97453 48.8043 0 44.4172 0C40.0301 0 36.4736 3.97453 36.4736 8.87736C36.4736 13.7802 40.0301 17.7547 44.4172 17.7547Z" fill="#3F3D56"/>
<path d="M71.8586 17.7547C76.2457 17.7547 79.8022 13.7802 79.8022 8.87736C79.8022 3.97453 76.2457 0 71.8586 0C67.4715 0 63.915 3.97453 63.915 8.87736C63.915 13.7802 67.4715 17.7547 71.8586 17.7547Z" fill="#3F3D56"/>
<path d="M312.553 111.221H186.448C184.872 111.221 183.361 110.522 182.248 109.277C181.134 108.032 180.508 106.344 180.508 104.583C180.508 102.823 181.134 101.134 182.248 99.8893C183.361 98.6444 184.872 97.9451 186.448 97.9451H312.553C314.128 97.9451 315.639 98.6444 316.753 99.8893C317.867 101.134 318.493 102.823 318.493 104.583C318.493 106.344 317.867 108.032 316.753 109.277C315.639 110.522 314.128 111.221 312.553 111.221Z" fill="#E4E4E4"/>
<path d="M292.22 88.4987H206.779C205.205 88.4967 203.696 87.7965 202.584 86.5519C201.471 85.3072 200.846 83.6199 200.846 81.8607C200.846 80.1014 201.471 78.4141 202.584 77.1695C203.696 75.9248 205.205 75.2246 206.779 75.2227H292.22C293.796 75.2227 295.306 75.922 296.42 77.1669C297.534 78.4118 298.16 80.1001 298.16 81.8607C298.16 83.6212 297.534 85.3096 296.42 86.5544C295.306 87.7993 293.796 88.4987 292.22 88.4987Z" fill="#E4E4E4"/>
<path d="M89.3521 298.786C118.467 298.786 142.068 272.41 142.068 239.873C142.068 207.336 118.467 180.96 89.3521 180.96C60.2377 180.96 36.6357 207.336 36.6357 239.873C36.6357 272.41 60.2377 298.786 89.3521 298.786Z" fill="#F0F0F0"/>
<path d="M430.203 298.786C459.318 298.786 482.92 272.41 482.92 239.873C482.92 207.336 459.318 180.96 430.203 180.96C401.089 180.96 377.487 207.336 377.487 239.873C377.487 272.41 401.089 298.786 430.203 298.786Z" fill="#F0F0F0"/>
<path d="M249.668 298.786C278.782 298.786 302.384 272.41 302.384 239.873C302.384 207.336 278.782 180.96 249.668 180.96C220.553 180.96 196.951 207.336 196.951 239.873C196.951 272.41 220.553 298.786 249.668 298.786Z" fill="#F0F0F0"/>
<path d="M455.825 265.407C451.67 262.96 447.334 260.921 442.865 259.312L442.295 252.266L419.182 249.484L416.245 258.489L407.95 261.967C407.653 262.093 407.371 262.258 407.108 262.457H407.099C405.741 262.586 404.433 263.091 403.294 263.927C402.521 264.478 401.834 265.167 401.26 265.965C402.382 266.916 403.548 267.798 404.749 268.64L404.802 268.67C405.144 268.905 405.495 269.14 405.845 269.366C406.477 269.787 407.126 270.189 407.775 270.571L408.187 270.806C409.134 271.355 410.098 271.874 411.089 272.354C411.291 272.452 411.51 272.55 411.712 272.648C411.729 272.658 411.738 272.658 411.755 272.668C412.22 272.883 412.685 273.089 413.158 273.285C414.714 273.949 416.3 274.518 417.911 274.99C422.021 276.214 426.256 276.834 430.51 276.832C432.062 276.832 433.597 276.754 435.114 276.587C438.58 276.23 442.001 275.458 445.32 274.285C445.328 274.285 445.338 274.275 445.346 274.275C447.443 273.528 449.49 272.622 451.475 271.561C451.484 271.551 451.501 271.551 451.51 271.541C451.958 271.306 452.387 271.051 452.825 270.806L453.036 270.688C453.387 270.483 453.738 270.277 454.089 270.061C454.965 269.522 455.825 268.954 456.674 268.346C456.911 268.19 457.139 268.023 457.376 267.847C457.709 267.602 458.042 267.347 458.367 267.082C457.552 266.494 456.701 265.936 455.825 265.407Z" fill="#740318"/>
<path d="M429.831 245.029C439.024 245.029 446.477 236.701 446.477 226.427C446.477 216.153 439.024 207.824 429.831 207.824C420.638 207.824 413.185 216.153 413.185 226.427C413.185 236.701 420.638 245.029 429.831 245.029Z" fill="#A0616A"/>
<path d="M418.655 217.365C420.379 219.644 423.295 220.287 425.985 220.551C431.448 221.087 439.392 220.218 444.731 218.84C445.112 222.968 444.073 227.418 446.248 230.813C447.268 226.703 447.861 222.475 448.016 218.213C448.178 216.384 447.964 214.539 447.391 212.816C447.084 211.953 446.567 211.204 445.899 210.652C445.23 210.101 444.436 209.771 443.608 209.699C444.848 208.648 446.3 207.954 447.837 207.678L442.552 204.71L443.909 203.152L434.34 202.498L437.112 200.53C432.94 199.89 428.72 199.741 424.521 200.086C422.571 200.247 420.532 200.553 418.952 201.816C417.372 203.079 416.459 205.588 417.44 207.442C416.212 207.667 415.056 208.239 414.081 209.104C413.106 209.968 412.345 211.096 411.87 212.382C411.268 214.424 411.123 216.6 411.447 218.72C411.807 222.121 412.515 225.465 413.555 228.687L418.655 217.365Z" fill="#2F2E41"/>
<path d="M252.592 207.976C256.479 207.976 259.63 204.454 259.63 200.11C259.63 195.766 256.479 192.245 252.592 192.245C248.705 192.245 245.554 195.766 245.554 200.11C245.554 204.454 248.705 207.976 252.592 207.976Z" fill="#2F2E41"/>
<path d="M246.486 204.202C245.596 203.273 244.937 202.101 244.574 200.802C244.21 199.502 244.155 198.12 244.413 196.789C244.671 195.459 245.233 194.226 246.045 193.211C246.857 192.196 247.891 191.434 249.045 191C248.078 191.158 247.152 191.539 246.324 192.119C245.496 192.7 244.785 193.467 244.237 194.371C243.689 195.275 243.316 196.297 243.14 197.371C242.965 198.446 242.992 199.549 243.22 200.611C243.447 201.673 243.87 202.671 244.462 203.54C245.053 204.41 245.8 205.132 246.655 205.661C247.51 206.19 248.454 206.514 249.428 206.612C250.401 206.711 251.382 206.582 252.308 206.234C251.263 206.406 250.197 206.313 249.189 205.961C248.181 205.609 247.257 205.008 246.485 204.202L246.486 204.202Z" fill="#2F2E41"/>
<path d="M252.734 250.509C264.153 250.509 273.409 240.164 273.409 227.403C273.409 214.642 264.153 204.297 252.734 204.297C241.315 204.297 232.059 214.642 232.059 227.403C232.059 240.164 241.315 250.509 252.734 250.509Z" fill="#2F2E41"/>
<path d="M234.341 214.681C237.903 210.204 242.883 207.448 248.229 206.996C253.575 206.544 258.869 208.431 262.994 212.258C262.825 212.078 262.657 211.898 262.482 211.723C258.398 207.634 253.028 205.526 247.552 205.862C242.077 206.198 236.946 208.951 233.287 213.516C229.628 218.08 227.742 224.082 228.042 230.201C228.343 236.319 230.807 242.054 234.891 246.143C234.93 246.182 234.97 246.222 235.009 246.26C235.184 246.435 235.365 246.6 235.544 246.766C231.66 242.637 229.363 236.982 229.139 230.996C228.914 225.009 230.78 219.16 234.341 214.681H234.341Z" fill="#2F2E41"/>
<path d="M252.559 250.313C259.913 250.313 265.875 243.65 265.875 235.432C265.875 227.213 259.913 220.55 252.559 220.55C245.204 220.55 239.243 227.213 239.243 235.432C239.243 243.65 245.204 250.313 252.559 250.313Z" fill="#A0616A"/>
<path d="M276.387 274.205V279.198C275.569 279.782 274.743 280.329 273.9 280.847C273.563 281.054 273.226 281.252 272.888 281.45L272.686 281.563C272.264 281.798 271.851 282.043 271.421 282.269C271.413 282.279 271.396 282.279 271.388 282.288C269.479 283.308 267.51 284.18 265.495 284.898C265.487 284.898 265.478 284.907 265.47 284.907C262.279 286.035 258.99 286.777 255.657 287.121C254.199 287.281 252.724 287.357 251.232 287.357C247.142 287.358 243.07 286.763 239.118 285.586C237.102 284.993 235.125 284.247 233.2 283.353C233.183 283.343 233.175 283.343 233.158 283.334C232.964 283.24 232.753 283.146 232.559 283.051C231.607 282.59 230.679 282.09 229.769 281.563L229.373 281.337C228.403 280.762 227.451 280.159 226.515 279.509L226.464 279.481C225.024 278.477 223.633 277.386 222.3 276.212C221.617 275.628 220.96 275.015 220.319 274.375C219.982 274.054 219.645 273.715 219.324 273.385C218.093 272.114 216.925 270.768 215.826 269.353C215.971 268.372 216.186 267.405 216.467 266.461L216.475 266.452C216.525 266.291 216.584 266.133 216.652 265.981C216.698 265.845 216.752 265.713 216.812 265.585C218.321 262.429 221.052 261.647 224.441 261.477C226.355 261.383 228.471 261.487 230.705 261.459C231.885 261.449 233.107 261.402 234.33 261.28C242.043 260.498 240.644 255.41 240.989 252.669C241.335 250.012 243.476 252.311 243.619 252.462L243.628 252.471C247.993 254.754 252.822 255.7 257.621 255.212C258.448 255.099 259.274 255.033 260.1 255.005C262.275 254.977 261.803 255.674 261.053 256.249C260.689 256.517 260.308 256.756 259.915 256.965C259.915 256.965 259.569 259.32 259.215 262.843C258.878 266.216 269.508 267.384 271.59 268.119H271.598C272.787 268.608 273.848 269.42 274.684 270.483C275.52 271.546 276.105 272.825 276.387 274.205Z" fill="#740318"/>
<path d="M239.067 234.453C239.648 234.453 240.119 233.489 240.119 232.299C240.119 231.11 239.648 230.146 239.067 230.146C238.487 230.146 238.016 231.11 238.016 232.299C238.016 233.489 238.487 234.453 239.067 234.453Z" fill="#A0616A"/>
<path d="M266.051 234.453C266.631 234.453 267.102 233.489 267.102 232.299C267.102 231.11 266.631 230.146 266.051 230.146C265.47 230.146 265 231.11 265 232.299C265 233.489 265.47 234.453 266.051 234.453Z" fill="#A0616A"/>
<path d="M72.4863 243.998L75.016 253.792L107.343 253.154L107.06 235.211C106.836 221.008 97.8541 208.758 85.1455 209.009C72.4368 209.259 64.356 221.266 64.5802 235.469L66.4264 253.961L71.6972 253.857L72.4863 243.998Z" fill="#2F2E41"/>
<path d="M86.5904 250.847C94.601 250.847 101.095 243.589 101.095 234.637C101.095 225.685 94.601 218.427 86.5904 218.427C78.5798 218.427 72.0859 225.685 72.0859 234.637C72.0859 243.589 78.5798 250.847 86.5904 250.847Z" fill="#FFB6B6"/>
<path d="M102.468 223.255C102.449 222.014 102.101 220.807 101.469 219.786C101.402 219.681 101.335 219.584 101.268 219.486C100.731 218.72 100.042 218.103 99.2557 217.683C98.4695 217.263 97.6071 217.052 96.7358 217.066L86.3109 217.276L75.8925 217.478C74.4 217.512 72.9801 218.205 71.9435 219.405C70.9069 220.606 70.3381 222.216 70.3615 223.884L72.8422 229.466L74.2702 232.673L74.5049 232.523C83.5218 226.859 87.2091 226.784 99.1429 232.051L99.3841 232.156L100.33 229.451L102.475 223.315L102.468 223.255Z" fill="#2F2E41"/>
<path d="M115.461 259.915C112.35 256.446 101.825 257.825 101.825 257.825L74.0426 259.78C67.8811 260.29 62.33 265.804 60.3188 268.037C60.6403 268.389 60.9692 268.733 61.3048 269.063C67.4787 275.195 75.2394 278.972 83.4624 279.845C91.6854 280.718 99.9435 278.642 107.04 273.918C110.017 271.933 113.826 269.552 116.212 266.773C117.158 265.679 117.914 265.7 118.752 264.502C118.125 262.617 116.971 261.009 115.461 259.915Z" fill="#740318"/>
<path d="M89.3521 461C118.467 461 142.068 434.624 142.068 402.087C142.068 369.55 118.467 343.173 89.3521 343.173C60.2377 343.173 36.6357 369.55 36.6357 402.087C36.6357 434.624 60.2377 461 89.3521 461Z" fill="#F0F0F0"/>
<path d="M430.203 461C459.318 461 482.92 434.624 482.92 402.087C482.92 369.55 459.318 343.173 430.203 343.173C401.089 343.173 377.487 369.55 377.487 402.087C377.487 434.624 401.089 461 430.203 461Z" fill="#F0F0F0"/>
<path d="M249.668 461C278.782 461 302.384 434.624 302.384 402.087C302.384 369.55 278.782 343.173 249.668 343.173C220.553 343.173 196.951 369.55 196.951 402.087C196.951 434.624 220.553 461 249.668 461Z" fill="#F0F0F0"/>
<path d="M88.4894 410.537C96.5383 410.537 103.063 403.245 103.063 394.25C103.063 385.255 96.5383 377.963 88.4894 377.963C80.4405 377.963 73.9155 385.255 73.9155 394.25C73.9155 403.245 80.4405 410.537 88.4894 410.537Z" fill="#FFB8B8"/>
<path d="M74.7015 399.346C74.7015 399.346 75.9398 396.916 75.6519 388.797C75.364 380.679 86.4261 385.271 95.6695 384.496C104.913 383.722 102.956 398.05 102.956 398.05C102.956 398.05 103.623 397.198 105.051 390.283C106.479 383.368 103.237 376.476 103.237 376.476C102.282 369.21 97.1368 371.539 97.1368 371.539C99.6147 372.617 99.1388 374.922 99.1388 374.922C97.0413 370.812 91.8959 373.141 91.8959 373.141C85.0335 368.328 78.0785 374.666 78.0785 374.666C69.7883 376.769 74.6501 384.137 74.6501 384.137C66.313 388.845 74.7015 399.346 74.7015 399.346Z" fill="#2F2E41"/>
<path d="M112.807 432.475C108.653 430.029 104.317 427.99 99.8474 426.38L99.277 419.335L76.1645 416.552L73.2272 425.557L64.9327 429.036C64.6357 429.162 64.353 429.326 64.0905 429.526H64.0815C62.7235 429.654 61.4157 430.159 60.2766 430.996C59.5039 431.547 58.8169 432.235 58.2427 433.034C59.3649 433.984 60.5305 434.866 61.7318 435.709L61.7848 435.738C62.1268 435.973 62.4777 436.209 62.8279 436.434C63.4595 436.855 64.1084 437.257 64.7572 437.639L65.1694 437.874C66.1161 438.423 67.0808 438.942 68.0716 439.423C68.2732 439.521 68.4927 439.619 68.6943 439.717C68.7115 439.726 68.7204 439.726 68.7376 439.736C69.2027 439.952 69.6672 440.157 70.1405 440.353C71.696 441.017 73.2824 441.587 74.893 442.059C79.0032 443.283 83.2389 443.902 87.4927 443.901C89.0449 443.901 90.5793 443.822 92.0965 443.656C95.5623 443.298 98.9839 442.526 102.302 441.353C102.311 441.353 102.32 441.343 102.329 441.343C104.425 440.597 106.473 439.69 108.458 438.629C108.466 438.619 108.484 438.619 108.493 438.609C108.94 438.374 109.369 438.119 109.808 437.874L110.018 437.757C110.369 437.551 110.72 437.345 111.071 437.13C111.948 436.591 112.807 436.022 113.657 435.415C113.893 435.258 114.122 435.092 114.359 434.915C114.692 434.67 115.025 434.415 115.349 434.151C114.534 433.563 113.684 433.004 112.807 432.475Z" fill="#740318"/>
<path d="M269.711 429.03L260.937 428.138L255.687 423.853C255.687 423.845 255.685 423.837 255.68 423.831L255.667 423.838L255.457 423.664L255.429 423.936L246.568 427.745L237.463 425.398L234.313 429.206L220.283 434.407C219.608 434.909 219.015 435.536 218.529 436.262L218.53 436.272C219.119 436.787 219.724 437.295 220.337 437.776C221.728 438.899 223.173 439.935 224.666 440.88C228.299 443.196 232.184 444.979 236.224 446.187C236.59 446.301 236.955 446.407 237.321 446.505C237.958 446.679 238.601 446.846 239.245 446.982C240.546 447.285 241.862 447.522 243.195 447.694C245.152 447.959 247.123 448.091 249.095 448.087C250.443 448.087 251.778 448.029 253.099 447.913C255.42 447.704 257.724 447.312 259.995 446.74C260.077 446.717 260.158 446.702 260.239 446.672C263.718 445.78 267.098 444.465 270.32 442.75C270.814 442.485 271.309 442.212 271.796 441.932C272.996 441.243 274.161 440.502 275.292 439.707C276.146 439.116 276.979 438.488 277.792 437.837C278.293 437.435 278.788 437.026 279.275 436.603L279.223 436.477C278.357 434.416 277.023 432.644 275.355 431.337C273.686 430.031 271.74 429.235 269.711 429.03Z" fill="#740318"/>
<path d="M261.33 380.094C260.306 378.96 259.151 377.985 257.896 377.194C250.139 372.409 241.664 372.326 234.645 376.959C232.901 378.108 231.307 379.522 229.91 381.161C225.972 385.754 223.767 391.865 223.752 398.226V417.092H267.908V396.295C267.908 390.723 265.165 384.273 261.33 380.094Z" fill="#2F2E41"/>
<path d="M244.958 416.577C253.765 416.577 260.905 408.598 260.905 398.755C260.905 388.912 253.765 380.932 244.958 380.932C236.15 380.932 229.01 388.912 229.01 398.755C229.01 408.598 236.15 416.577 244.958 416.577Z" fill="#FFB8B8"/>
<path d="M261.317 382.577C261.284 382.198 261.164 381.834 260.968 381.523C260.772 381.211 260.507 380.961 260.199 380.798C250.22 375.589 240.099 375.725 230.133 381.207H229.951L229.89 381.487C227.925 398.4 228.203 398.771 228.325 398.922C228.517 399.167 228.755 399.361 229.023 399.49C229.268 399.611 229.534 399.673 229.802 399.672H252.55L252.605 399.384C252.869 397.87 253.208 396.374 253.621 394.902C254.527 396.38 255.362 397.912 256.121 399.49L256.215 399.672H260.639C260.723 399.672 260.807 399.664 260.89 399.649C261.347 399.588 261.768 399.343 262.075 398.96C262.197 398.816 262.482 398.468 261.317 382.577Z" fill="#2F2E41"/>
<path d="M442.128 426.742L441.554 419.615L418.141 416.796L415.177 425.916L406.772 429.435C406.467 429.561 406.177 429.727 405.907 429.93C404.229 430.1 402.634 430.824 401.325 432.011C401.516 432.188 401.708 432.357 401.899 432.527C401.939 432.571 401.985 432.608 402.025 432.645C402.559 433.11 403.108 433.567 403.662 434.003C403.807 434.121 403.953 434.239 404.105 434.35C405.322 435.313 406.582 436.207 407.881 437.028C409.122 437.817 410.396 438.546 411.704 439.212C414.105 440.439 416.594 441.438 419.145 442.2C419.501 442.311 419.858 442.414 420.215 442.51C420.835 442.68 421.462 442.842 422.09 442.975C423.357 443.27 424.64 443.501 425.939 443.669C427.847 443.927 429.767 444.055 431.689 444.052C433.004 444.052 434.304 443.996 435.592 443.883C437.853 443.679 440.099 443.297 442.313 442.739C442.392 442.717 442.471 442.702 442.551 442.673C445.941 441.804 449.235 440.522 452.375 438.85C452.857 438.592 453.339 438.327 453.814 438.054C454.983 437.382 456.119 436.659 457.221 435.884C457.617 435.611 458.007 435.331 458.396 435.036C452.408 430.535 443.713 427.31 442.128 426.742Z" fill="#740318"/>
<path d="M428.933 412.282C438.244 412.282 445.792 403.847 445.792 393.441C445.792 383.035 438.244 374.6 428.933 374.6C419.621 374.6 412.073 383.035 412.073 393.441C412.073 403.847 419.621 412.282 428.933 412.282Z" fill="#A0616A"/>
<path d="M417.616 384.262C419.362 386.57 422.315 387.221 425.039 387.486C430.573 388.028 438.618 387.148 444.026 385.753C444.414 389.933 443.36 394.441 445.562 397.88C446.595 393.717 447.196 389.434 447.352 385.118C447.516 383.266 447.3 381.396 446.72 379.652C446.409 378.778 445.885 378.018 445.208 377.46C444.531 376.902 443.727 376.568 442.888 376.495C443.073 376.281 443.2 376.014 443.255 375.723C443.31 375.432 443.289 375.13 443.196 374.851C442.993 373.868 442.545 372.969 441.903 372.258C441.261 371.548 440.453 371.055 439.571 370.837L433.502 369.202C433.502 369.202 427.807 366.411 423.552 366.761C421.577 366.924 419.512 367.234 417.912 368.514C416.312 369.793 415.388 372.334 416.381 374.211C415.138 374.44 413.967 375.019 412.979 375.894C411.992 376.77 411.221 377.913 410.74 379.214C410.131 381.283 409.984 383.487 410.311 385.634C410.676 389.079 411.393 392.466 412.446 395.728L417.616 384.262Z" fill="#2F2E41"/>
<path d="M266.944 224.044C266.433 222.213 265.292 220.683 263.773 219.79C262.265 218.916 260.655 218.284 258.99 217.911C256.078 216.975 253.061 216.514 250.032 216.541C247.011 216.707 243.922 217.872 241.869 220.355C239.817 222.838 239.056 226.781 240.551 229.719L240.386 230.479C242.782 230.797 245.21 230.333 247.375 229.141C249.541 227.949 251.35 226.081 252.585 223.764C253.718 225.764 255.327 227.371 257.233 228.405C259.138 229.44 261.263 229.86 263.37 229.62C264.043 229.559 264.698 229.349 265.296 229.001C266.006 228.477 266.549 227.714 266.845 226.823C267.141 225.932 267.176 224.958 266.944 224.044Z" fill="#2F2E41"/>
<path d="M481.836 5.43004H462.338C461.955 5.43004 461.588 5.25998 461.317 4.95729C461.046 4.65459 460.894 4.24405 460.894 3.81597C460.894 3.38789 461.046 2.97735 461.317 2.67465C461.588 2.37196 461.955 2.2019 462.338 2.2019H481.836C482.219 2.2019 482.587 2.37196 482.857 2.67465C483.128 2.97735 483.28 3.38789 483.28 3.81597C483.28 4.24405 483.128 4.65459 482.857 4.95729C482.587 5.25998 482.219 5.43004 481.836 5.43004Z" fill="#3F3D56"/>
<path d="M481.836 11.4828H462.338C461.955 11.4828 461.588 11.3127 461.317 11.01C461.046 10.7073 460.894 10.2968 460.894 9.8687C460.894 9.44063 461.046 9.03008 461.317 8.72739C461.588 8.42469 461.955 8.25464 462.338 8.25464H481.836C482.219 8.25464 482.587 8.42469 482.857 8.72739C483.128 9.03008 483.28 9.44063 483.28 9.8687C483.28 10.2968 483.128 10.7073 482.857 11.01C482.587 11.3127 482.219 11.4828 481.836 11.4828Z" fill="#3F3D56"/>
<path d="M481.836 17.5355H462.338C461.955 17.5355 461.588 17.3655 461.317 17.0628C461.046 16.7601 460.894 16.3495 460.894 15.9214C460.894 15.4934 461.046 15.0828 461.317 14.7801C461.588 14.4774 461.955 14.3074 462.338 14.3074H481.836C482.219 14.3074 482.587 14.4774 482.857 14.7801C483.128 15.0828 483.28 15.4934 483.28 15.9214C483.28 16.3495 483.128 16.7601 482.857 17.0628C482.587 17.3655 482.219 17.5355 481.836 17.5355Z" fill="#3F3D56"/>
</g>
<defs>
<clipPath id="clip0_76_1512">
<rect width="499" height="461" fill="white"/>
</clipPath>
</defs>
</svg>
